<svg width="1200" height="1200" viewBox="0 0 1200 1200" fill="none" xmlns="http://www.w3.org/2000/svg">
<g clip-path="url(#clip0_4168_851)">
<rect width="1200" height="1200" fill="#070B0E"/>
<rect width="1200" height="1200" fill="#070B0E"/>
<path d="M125.363 671.25H1074.64C1078.17 647.796 1080 623.785 1080 599.348C1080 574.91 1078.17 550.9 1074.64 527.446H776.153L987.492 316.394C958.979 277.519 924.742 243.094 886.02 214.358L672 428.087V125.357C648.586 121.839 624.618 120.011 600.224 120H599.775C575.381 120.011 551.414 121.839 528 125.357V428.087L313.979 214.357C275.257 243.094 241.02 277.518 212.507 316.393L423.847 527.446H125.363C121.872 550.624 120.043 574.345 120 598.485V600.21C120.043 624.35 121.872 648.072 125.363 671.25Z" fill="white"/>
</g>
<defs>
<clipPath id="clip0_4168_851">
<rect width="1200" height="1200" fill="white"/>
</clipPath>
</defs>
</svg>
