<svg width="256" height="128" viewBox="0 0 256 128" fill="none" xmlns="http://www.w3.org/2000/svg">
<path fill-rule="evenodd" clip-rule="evenodd" d="M181.14 68.0338C181.05 68.0338 180.96 68.0338 180.96 68.1244C179.611 69.9362 177.723 70.4797 175.565 70.3891C172.868 70.2079 170.44 69.302 169.361 66.675C167.742 62.8704 168.911 57.0728 175.565 56.8011C176.374 56.8011 177.183 56.8917 177.993 56.9823C179.252 57.254 180.33 57.8881 181.14 59.0658V57.0729H183.388C183.478 57.0729 183.567 57.254 183.657 57.3446V69.2115C183.657 70.1173 183.567 71.0232 183.388 71.9291C182.938 73.8314 181.769 75.009 179.881 75.4619C177.543 76.096 175.115 76.1866 172.688 75.6431C170.979 75.1902 169.81 74.1031 169.361 72.2914V71.9291H171.609C171.699 71.9291 171.789 72.0196 171.878 72.1102C172.328 73.2879 173.317 73.7408 174.486 73.922C175.835 74.1031 177.094 74.1031 178.442 73.7408C180.241 73.1973 181.23 71.9291 181.23 70.0267C181.14 69.302 181.14 68.6679 181.14 68.0338ZM181.14 63.6857C181.14 60.7869 179.162 58.794 176.284 58.794C173.407 58.794 171.339 60.6963 171.339 63.5045C171.339 66.4033 173.227 68.3056 176.194 68.3056C179.162 68.3962 181.14 66.4939 181.14 63.6857ZM162.348 58.8846C162.348 58.6128 162.437 58.3411 162.437 58.1599V52.7247C162.437 52.1812 162.617 52 163.067 52.0906H164.865V69.6644C164.865 70.2079 164.685 70.3891 164.236 70.2985H162.977C162.527 70.2985 162.348 70.1173 162.437 69.6644V68.5774C160.369 70.6608 158.032 71.0232 155.514 70.5703C153.895 70.2985 152.547 69.3926 151.468 68.0338C149.4 65.3162 149.759 60.9681 152.187 58.6128C154.435 56.3482 159.83 55.8952 162.348 58.8846ZM152.727 63.6857C152.727 66.7656 154.615 68.6679 157.582 68.6679C160.549 68.6679 162.527 66.675 162.527 63.7763C162.527 60.7869 160.549 58.794 157.582 58.794C154.615 58.794 152.727 60.6963 152.727 63.6857ZM116.131 68.7585V69.8456C116.131 70.1173 116.041 70.2985 115.682 70.2985H114.153C113.883 70.2985 113.703 70.2079 113.703 69.8456V52.2718V52.0906H116.041V58.8846C117.84 56.8917 120.088 56.5293 122.425 56.8011C124.134 56.9823 125.662 57.7976 126.741 59.1564C128.899 61.7834 128.719 66.2221 126.382 68.6679C124.224 71.1138 118.829 71.6573 116.131 68.7585ZM125.842 63.7763C125.842 60.7869 123.954 58.8846 120.987 58.794C117.93 58.794 116.041 60.6963 116.041 63.7763C116.041 66.7656 118.019 68.7585 120.987 68.7585C123.864 68.6679 125.842 66.7656 125.842 63.7763ZM189.861 64.4104C189.951 65.588 190.401 66.4939 191.21 67.3091C192.919 68.8491 195.616 69.2115 197.594 67.9433C198.044 67.6715 198.493 67.3091 198.763 66.8562C199.033 66.4033 199.392 66.3127 199.842 66.3127H201.64C201.55 66.4939 201.55 66.5844 201.461 66.7656C200.202 69.3926 197.504 70.9326 194.357 70.7514C192.469 70.6608 190.761 70.2079 189.412 68.8491C187.614 67.128 186.984 64.9539 187.344 62.5986C187.883 59.0658 190.041 57.0728 193.638 56.6199C195.077 56.4387 196.425 56.5293 197.684 56.9823C200.202 57.8881 201.55 59.881 201.91 62.5081C202 62.961 202 63.4139 202 63.8669C202 64.2292 201.91 64.3198 201.55 64.3198H190.581C190.401 64.4104 190.221 64.4104 189.861 64.4104ZM199.392 62.4175C199.213 60.1528 197.235 58.6128 194.537 58.6128C192.199 58.6128 190.041 60.334 189.951 62.4175H199.392ZM84.4812 70.7514C83.3123 70.7514 82.1434 70.5703 80.9745 70.1173C78.367 69.0303 76.8384 66.4939 77.0182 63.5951C77.1981 59.6999 79.4459 57.254 83.3123 56.7105C84.5711 56.5293 85.8299 56.6199 86.9988 56.8917C89.966 57.6164 91.8542 59.6999 92.2139 62.7798C92.5735 65.6786 91.4945 68.3962 88.7971 69.8456C87.3584 70.4797 86.0097 70.7514 84.4812 70.7514ZM84.5711 68.7585C85.1106 68.6679 85.5601 68.6679 86.0996 68.5774C88.9769 67.9432 90.0559 65.1351 89.5164 62.5986C88.7971 58.8846 84.0316 57.4352 81.1543 59.881C79.6258 61.1493 79.0863 63.6857 79.8955 65.7692C80.5249 67.5809 82.2333 68.6679 84.5711 68.7585ZM96.0802 57.0729H98.5079V59.0658C98.6877 58.9752 98.7776 58.8846 98.8676 58.794C100.036 57.3446 101.565 56.7105 103.363 56.6199C104.622 56.5293 105.881 56.7105 107.05 57.254C108.489 57.9787 109.298 59.1563 109.298 60.7869C109.388 63.7763 109.298 66.7656 109.298 69.755C109.298 70.2079 109.118 70.2985 108.758 70.2985H107.41C106.96 70.2985 106.87 70.1173 106.87 69.755V62.2363C106.87 59.9716 105.701 58.794 103.453 58.794C102.644 58.794 101.745 58.8846 100.936 59.1564C99.3171 59.6999 98.5079 61.0587 98.5079 62.8704V69.755C98.5079 70.3891 98.3281 70.4797 97.7886 70.4797H96.7096C96.26 70.4797 96.0802 70.2985 96.0802 69.8456V59.6093V57.0729ZM67.4872 67.9433V69.9362C67.4872 70.0267 67.3074 70.2079 67.2175 70.2079C67.1276 70.2985 66.9478 70.2079 66.7679 70.2079H54.7193C54.1798 70.2079 54 70.1173 54 69.4832V52.8153C54 52.2718 54.1798 52.0906 54.6294 52.1812H56.068C56.5176 52.1812 56.6974 52.3623 56.6974 52.8153V67.9433H67.4872ZM134.744 57.0729V59.3375C134.744 59.3375 134.834 59.3375 134.834 59.4281C134.923 59.2469 135.013 59.1564 135.193 58.9752C136.362 57.254 137.981 56.5293 140.049 56.7105C140.768 56.8011 140.768 56.8011 140.768 57.5258V59.5187C140.408 59.4281 140.049 59.4281 139.779 59.3375C136.992 58.9752 134.744 60.5151 134.744 63.5951V69.8456C134.744 70.2985 134.654 70.3891 134.204 70.3891H132.945C132.406 70.4797 132.226 70.2079 132.226 69.6644V63.3233V57.7976C132.226 57.3446 132.406 57.1634 132.855 57.1634C133.485 57.0729 134.114 57.0729 134.744 57.0729ZM73.062 57.0729V69.6644C73.062 70.2079 72.8821 70.3891 72.4326 70.2985H71.1738C70.8141 70.2985 70.6343 70.1173 70.6343 69.755V57.5258C70.6343 57.1634 70.7242 56.9823 71.0838 57.0729H73.062ZM143.825 57.0729H145.983C146.073 57.0729 146.253 57.254 146.253 57.3446C146.343 57.4352 146.253 57.6164 146.253 57.707V69.4832C146.253 70.2079 146.253 70.2985 145.533 70.2079C144.994 70.2079 144.275 70.3891 143.915 70.0267C143.645 69.755 143.825 69.0303 143.825 68.4868V57.707V57.0729ZM73.062 52.0906V54.3552C73.062 54.627 72.9721 54.8082 72.7023 54.7176H71.0838C70.8141 54.7176 70.6343 54.627 70.6343 54.2647V52.3623C70.6343 52.2718 70.8141 52 70.904 52C71.6233 52.0906 72.3427 52.0906 73.062 52.0906ZM143.825 52.0906H145.893C145.983 52.0906 146.253 52.2718 146.253 52.4529V54.3552C146.253 54.5364 145.983 54.7176 145.893 54.7176C145.354 54.8082 144.814 54.7176 144.185 54.7176C144.095 54.7176 143.825 54.5364 143.825 54.3552V52.0906Z" fill="#070B0E"/>
</svg>
