<svg width="256" height="128" viewBox="0 0 256 128" fill="none" xmlns="http://www.w3.org/2000/svg">
<path d="M21.5064 44V46.4681H49.3476C52.4574 46.4681 54.9857 49.0745 54.9857 52.2809V84H61.544V56.2532C61.544 49.2681 55.8761 44 49.6543 44H21.5064ZM37.8158 64.9894L21.5064 54.1957V57.334L36.18 67.0426C38.7913 68.7745 39.4666 72.5149 37.6816 75.3787L32.3097 83.9957H40.1162L40.9746 82.6043C45.1302 75.8681 42.7254 68.2383 37.8158 64.9894ZM29.4918 68.4957L21.5 59.9723V63.7702L27.4406 70.1043C29.5983 72.4106 29.4342 76.2191 27.0486 78.5745C25.6684 79.934 21.5 83.9936 21.5 83.9936H30.3033C34.5463 77.0532 32.51 71.7149 29.4918 68.4957ZM53.0027 69.6447C54.4042 63.0043 51.0005 55.9255 44.0588 54.2894L21.5085 48.9723V51.683L43.2239 56.8085C46.257 57.4872 48.1633 60.7447 47.4626 64.0745L43.2643 83.9957H49.976L53.0027 69.6447ZM83.8771 68.2638V73.4255H98.8509V77.2511H79.8024V50.3425H98.4867V54.1681H83.8792V63.9064C85.1465 62.4021 87.0784 61.4404 89.2084 61.4404H96.9723V65.2596H87.0124C85.3042 65.2596 83.8941 66.617 83.8792 68.266V68.2638H83.8771ZM169.465 58.1915H165.81V77.2511H169.465V58.1915ZM143.106 50.3425H139.451V77.2511H143.106V50.3425ZM232.777 57.8383C230.657 57.8383 228.734 58.7936 227.467 60.2979V58.1915H223.726V77.2511H227.467C227.467 77.2511 227.484 65.183 227.484 64.3936C227.484 62.8638 228.977 61.6851 230.579 61.6851H234.5V57.8383H232.777ZM118.903 58.1915H114.472L109.931 64.8064L105.356 58.1915H100.926L107.546 67.3851L100.583 77.2511H105.043L109.931 70.0426L114.751 77.2511H119.248L112.287 67.3851L118.903 58.1915ZM137.161 64.3085C136.122 60.5128 132.45 57.8404 128.094 57.8404C122.918 57.8404 118.453 61.4447 118.453 67.7574C118.453 73.4511 122.332 77.6362 128.094 77.6362C132.439 77.6362 136.107 74.9745 137.155 71.1915L133.466 70.2532C132.792 72.5064 130.675 74.0255 128.085 74.0255C124.23 74.0255 122.258 70.9936 122.258 67.7532C122.258 64.1255 124.547 61.4532 128.081 61.4532C130.671 61.4532 132.79 62.9745 133.461 65.2298L137.161 64.3085ZM162.923 64.6723V77.2511H159.594L159.626 75.0362C158.108 76.7915 154.836 77.6362 152.399 77.6362C148.229 77.6362 145.221 76.0447 145.221 72.0489C145.221 65.1426 153.479 65.6745 159.251 65.6745V64.6723C159.251 62.7638 157.852 61 155.662 61H152.832C150.795 61 149.707 62.5766 149.707 64.6723H146.033C146.033 59.0319 150.273 57.8383 152.934 57.8383H155.549H155.56C160.046 57.8383 162.923 60.7702 162.923 64.6723ZM159.251 69.0191C154.369 69.0191 148.861 68.666 148.861 72.0149C148.861 73.4702 149.796 74.2553 152.265 74.2553C155.5 74.2553 158.974 72.4596 159.228 69.6128C159.243 69.4362 159.251 69.2745 159.251 69.1106V69.0191ZM167.733 50.3425C166.351 50.3425 165.232 51.4617 165.232 52.8404C165.232 54.2191 166.353 55.3383 167.733 55.3383C169.115 55.3383 170.234 54.2191 170.234 52.8404C170.234 51.4617 169.115 50.3425 167.733 50.3425ZM217.837 71.2702L221.324 72.0979C219.982 75.8787 216.444 77.634 212.729 77.634C207.014 77.634 203.021 73.4851 203.021 67.5447C203.021 61.9191 207.081 57.8362 212.371 57.8362C218.201 57.8362 221.912 62.5787 221.264 69.1085H206.88C207.543 72.7319 210.129 74.134 212.763 74.134C215.933 74.1362 217.29 72.3234 217.837 71.2702ZM206.953 65.8085H217.405C217.405 65.8085 216.915 61.3319 212.331 61.3319C207.747 61.3319 206.953 65.8085 206.953 65.8085ZM201.021 64.0404V77.2511H197.378V64.7213C197.378 63.0511 196 61.6915 194.305 61.6851H191.651C189.951 61.6851 188.569 63.0489 188.569 64.7213V77.2511H184.916V64.7213C184.916 63.0511 183.521 61.6915 181.804 61.6851H179.118C177.397 61.6851 175.997 63.0489 175.997 64.7213L175.989 77.2511H172.347V58.1894H175.989V60.2957C175.989 60.2957 177.78 57.8383 181.386 57.8383C185.12 57.8383 187.099 60.2404 187.717 61.5511C188.513 59.9489 190.53 57.8383 194.126 57.8383C198.051 57.8383 201.021 61.0213 201.021 64.0404Z" fill="#070B0E"/>
</svg>
