<svg width="256" height="128" viewBox="0 0 256 128" fill="none" xmlns="http://www.w3.org/2000/svg">
<path fill-rule="evenodd" clip-rule="evenodd" d="M161.959 49.8686L158.874 70.5632C158.78 71.1918 159.333 71.727 159.962 71.6167L166.64 70.4454C167.325 70.3252 167.898 70.9643 167.7 71.6278L164.359 82.7987C164.086 83.7131 165.208 84.3963 165.902 83.7384L190.206 60.7177C190.877 60.0818 190.311 58.9663 189.398 59.1264L183.009 60.247C182.248 60.3805 181.662 59.5918 182.012 58.9073L188.957 45.3547C189.308 44.6702 188.722 43.8815 187.961 44.0149L163.486 48.3079C162.692 48.4471 162.077 49.0758 161.959 49.8686ZM175.674 60.4537C175.945 61.9835 175.182 61.6859 173.986 61.2192C173.06 60.8583 171.875 60.3963 170.71 60.6006C169.544 60.8051 168.59 61.6424 167.845 62.2964C166.881 63.1418 166.266 63.6811 165.995 62.1513C165.514 59.4381 167.291 56.8586 169.964 56.3898C172.636 55.921 175.193 57.7405 175.674 60.4537Z" fill="#070B0E"/>
<path fill-rule="evenodd" clip-rule="evenodd" d="M75.2275 80.6869C76.0874 80.9377 77.0548 81.0631 78.1296 81.0631C79.6703 81.0631 81.1392 80.7586 82.5365 80.1495C83.9339 79.5046 85.1521 78.6268 86.191 77.5161C87.266 76.3696 88.1079 75.0261 88.717 73.4855C89.362 71.9449 89.6843 70.261 89.6843 68.4338C89.6843 66.6065 89.362 64.9227 88.717 63.382C88.1079 61.8415 87.266 60.5159 86.191 59.4052C85.1521 58.2587 83.9339 57.381 82.5365 56.7719C81.1392 56.127 79.6703 55.8045 78.1296 55.8045C77.0906 55.8045 76.177 55.9478 75.3887 56.2345C74.6363 56.4853 73.9735 56.754 73.4002 57.0406C72.7553 57.3988 72.182 57.7929 71.6805 58.2229V46.9372H65.5V80.5036H70.0682L71.143 78.376C71.6805 78.8775 72.3075 79.3254 73.024 79.7195C73.6331 80.0778 74.3676 80.4002 75.2275 80.6869ZM72.9166 73.3242C71.7342 72.1061 71.143 70.476 71.143 68.4338C71.143 66.3917 71.7342 64.7614 72.9166 63.5433C74.0989 62.3251 75.5679 61.7161 77.3235 61.7161C79.079 61.7161 80.5481 62.3251 81.7304 63.5433C82.9127 64.7614 83.504 66.3917 83.504 68.4338C83.504 70.476 82.9127 72.1061 81.7304 73.3242C80.5481 74.5424 79.079 75.1515 77.3235 75.1515C75.5679 75.1515 74.0989 74.5424 72.9166 73.3242Z" fill="#070B0E"/>
<path d="M126.398 50.0141H121.069L121.069 53.2005C121.069 55.1626 120.093 56.1436 118.139 56.1436H116.54V61.2029H120.27L120.27 72.2336C120.27 73.5892 120.466 74.8022 120.856 75.8724C121.283 76.9427 121.851 77.8702 122.561 78.655C123.307 79.4399 124.178 80.0464 125.172 80.4745C126.202 80.8669 127.321 81.0631 128.529 81.0631C129.311 81.0631 130.269 80.9738 130.873 80.7955C131.193 80.7241 131.477 80.6106 131.726 80.5036V75.1768C131.584 75.2481 131.442 75.3016 131.3 75.3373C131.158 75.3729 130.912 75.4293 130.82 75.4443C130.719 75.4609 130.444 75.455 130.188 75.4495C130.068 75.4468 129.952 75.4443 129.861 75.4443C128.795 75.4443 127.943 75.1411 127.304 74.5346C126.7 73.8925 126.398 73.0363 126.398 71.966L126.398 61.2029H131.726V55.6085H126.398L126.398 50.0141Z" fill="#070B0E"/>
<path d="M146.481 55.383C146.265 55.3469 146.013 55.3288 145.725 55.3288C144.789 55.3288 143.943 55.4912 143.187 55.8161C142.467 56.1048 141.855 56.4477 141.351 56.8447C140.739 57.2778 140.217 57.7651 139.785 58.3065L138.706 55.5995H134.116V80.5036H140.325V67.2395C140.325 65.6153 140.793 64.3159 141.729 63.3414C142.701 62.3309 143.943 61.8255 145.455 61.8255C145.779 61.8255 146.067 61.8436 146.319 61.8796C146.607 61.9158 146.841 61.9519 147.021 61.9879C147.237 62.0241 147.435 62.0601 147.615 62.0963V55.5995L147.075 55.4912C146.895 55.4551 146.697 55.419 146.481 55.383Z" fill="#070B0E"/>
<path fill-rule="evenodd" clip-rule="evenodd" d="M115.172 73.2964C114.849 74.2247 114.348 75.1532 113.667 76.0817C113.022 77.0101 112.216 77.8492 111.249 78.5991C110.317 79.3133 109.242 79.9025 108.024 80.3668C106.842 80.831 105.552 81.0631 104.154 81.0631C102.47 81.0631 100.876 80.7416 99.3713 80.099C97.9024 79.4205 96.5945 78.5099 95.448 77.3672C94.3374 76.2245 93.4416 74.9033 92.7608 73.4034C92.116 71.8679 91.7935 70.2254 91.7935 68.4756C91.7935 66.7259 92.116 65.1011 92.7608 63.6014C93.4416 62.0659 94.3374 60.7268 95.448 59.5841C96.5945 58.4414 97.9024 57.5487 99.3713 56.9059C100.876 56.2275 102.47 55.8882 104.154 55.8882C105.767 55.8882 107.289 56.1918 108.722 56.7988C110.156 57.4059 111.41 58.2629 112.485 59.3699C113.56 60.4768 114.401 61.8159 115.011 63.3872C115.656 64.9226 115.978 66.6188 115.978 68.4756C115.978 68.7613 115.96 69.047 115.924 69.3327L115.817 70.0826C115.781 70.3682 115.745 70.636 115.709 70.886H98.5114C98.798 72.1001 99.4071 73.1178 100.339 73.9391C101.27 74.7604 102.542 75.1711 104.154 75.1711C104.978 75.1711 105.659 75.0818 106.197 74.9033C106.77 74.7247 107.254 74.5105 107.648 74.2605C108.078 73.9749 108.436 73.6534 108.722 73.2964H115.172ZM104.154 61.7802C102.542 61.7802 101.216 62.2445 100.177 63.1728C99.1742 64.1013 98.5293 65.244 98.2426 66.6009H110.066C109.78 65.244 109.117 64.1013 108.078 63.1728C107.074 62.2445 105.767 61.7802 104.154 61.7802Z" fill="#070B0E"/>
</svg>
