<svg width="256" height="128" viewBox="0 0 256 128" fill="none" xmlns="http://www.w3.org/2000/svg">
<path d="M77.9851 77.476H86.569L77.8492 64.0342L86.569 50.4557H77.9851L73.5458 57.655L69.084 50.4557H60.5L69.2199 64.0342L60.5 77.476H69.084L73.5458 70.3906L77.9851 77.476Z" fill="#070B0E"/>
<path d="M104.937 68.3857L114.586 50.4557H106.387L101.178 60.3889L95.991 50.4557H87.7694L97.4632 68.3857V77.476H104.937V68.3857Z" fill="#070B0E"/>
<path d="M134.54 66.2669C134.064 67.6338 133.294 68.7502 132.184 69.6387C131.074 70.5273 129.806 70.9829 128.424 70.9829C126.635 70.9829 125.095 70.2994 123.827 68.9325C122.558 67.5655 121.924 65.9251 121.924 63.9886C121.924 62.0521 122.558 60.4117 123.827 59.0448C125.095 57.6778 126.635 56.9943 128.424 56.9943C129.806 56.9943 131.074 57.4272 132.207 58.2929C133.317 59.1815 134.109 60.3206 134.54 61.7103H142.422C141.901 58.3157 140.315 55.5134 137.711 53.3035C135.083 51.0936 131.98 50 128.424 50C124.416 50 121.064 51.3442 118.323 54.0553C115.582 56.7665 114.223 60.07 114.223 63.9886C114.223 67.9072 115.605 71.2107 118.346 73.9219C121.086 76.633 124.438 78 128.424 78C131.98 78 135.061 76.8836 137.688 74.6509C140.315 72.4182 141.901 69.6159 142.422 66.2669H134.54Z" fill="#070B0E"/>
<path d="M145.751 50.4557V77.476H165.003V70.4817H153.225V50.4557H145.751Z" fill="#070B0E"/>
<path d="M171.22 54.0553C168.48 56.7665 167.121 60.07 167.121 63.9886C167.121 67.9072 168.48 71.2107 171.22 73.9219C173.961 76.633 177.313 78 181.322 78C185.308 78 188.66 76.633 191.401 73.9219C194.141 71.2107 195.5 67.9072 195.5 63.9886C195.5 60.07 194.141 56.7665 191.401 54.0553C188.66 51.3442 185.308 50 181.322 50C177.313 50 173.961 51.3442 171.22 54.0553ZM176.724 68.9325C175.456 67.5655 174.821 65.9251 174.821 63.9886C174.821 62.0521 175.456 60.4117 176.724 59.0448C177.992 57.6778 179.532 56.9943 181.322 56.9943C183.111 56.9943 184.628 57.6778 185.897 59.0448C187.165 60.4117 187.799 62.0521 187.799 63.9886C187.799 65.9251 187.165 67.5655 185.897 68.9325C184.628 70.2994 183.111 70.9829 181.322 70.9829C179.532 70.9829 177.992 70.2994 176.724 68.9325Z" fill="#070B0E"/>
</svg>
