<svg width="256" height="128" viewBox="0 0 256 128" fill="none" xmlns="http://www.w3.org/2000/svg">
<path d="M86.6753 58.6585V44H83V62.3231H95.6012V58.6585H86.6753Z" fill="#070B0E"/>
<path d="M111.081 47.6646V44H98.4798V62.3231H111.081V58.6585H102.155V54.5489H110.031V50.8843H102.155V47.6646H111.081Z" fill="#070B0E"/>
<path d="M126.561 50.6748V49.2352C126.561 46.3296 124.224 44 121.31 44H119.21C116.322 44 113.959 46.3558 113.959 49.2352V57.0618C113.959 59.9411 116.322 62.3231 119.21 62.3231H121.31C124.198 62.3231 126.561 59.9673 126.561 57.0618V52.3763H119.735V56.0409H122.885V57.0618C122.885 57.9256 122.177 58.6323 121.31 58.6323H119.21C118.344 58.6323 117.635 57.9256 117.635 57.0618V49.2352C117.635 48.3714 118.317 47.6646 119.21 47.6646H121.31C122.203 47.6646 122.885 48.3452 122.885 49.2352V50.6748H126.561Z" fill="#070B0E"/>
<path d="M142.041 47.6646V44H129.439V62.3231H142.041V58.6585H133.115V54.5489H140.99V50.8843H133.115V47.6646H142.041Z" fill="#070B0E"/>
<path d="M153.845 44V54.863L149.618 44H144.919V62.3231H148.594V51.4601L152.821 62.3231H157.52V44H153.845Z" fill="#070B0E"/>
<path d="M167.749 44H160.399V62.3231H167.749C170.637 62.3231 173 59.9411 173 57.0618V49.2352C173 46.3558 170.637 44 167.749 44ZM169.325 57.0618C169.325 57.9256 168.616 58.6323 167.749 58.6323H164.074V47.6646H167.749C168.642 47.6646 169.325 48.3714 169.325 49.2352V57.0618Z" fill="#070B0E"/>
<path d="M86.6753 80.3354V65.6769H83V84H95.6012V80.3354H86.6753Z" fill="#070B0E"/>
<path d="M106.461 65.6769H103.1L98.4798 78.2151V84H102.155V80.8065H107.406V84H111.081V78.2151L106.461 65.6769ZM104.78 71.7235L106.776 77.1419H102.785L104.78 71.7235Z" fill="#070B0E"/>
<path d="M125.038 74.2626C125.668 73.3988 126.036 72.3256 126.036 71.1738V70.9121C126.036 68.0065 123.699 65.6769 120.785 65.6769H113.959V84H121.31C124.224 84 126.561 81.6703 126.561 78.7648V77.9795C126.561 76.5137 125.983 75.2049 125.038 74.2626ZM120.785 69.3415C121.678 69.3415 122.36 70.0221 122.36 70.9121V71.1738C122.36 72.0638 121.678 72.7444 120.785 72.7444H117.635V69.3415H120.785ZM122.885 78.7648C122.885 79.6548 122.203 80.3354 121.31 80.3354H117.635V76.409H121.31C122.203 76.409 122.885 77.0896 122.885 77.9795V78.7648Z" fill="#070B0E"/>
<path d="M129.439 77.8225V78.6078C129.439 81.5918 131.855 84 134.847 84H136.606C139.678 84 142.041 81.7751 142.041 78.8695C142.041 73.2941 133.377 72.3517 133.377 70.5456C133.377 69.8127 133.955 69.3415 135.11 69.3415H136.344C137.315 69.3415 138.103 70.1268 138.103 71.0691V71.5926H141.778V71.0691C141.778 68.0851 139.337 65.6769 136.344 65.6769H135.11C131.986 65.6769 129.702 67.6924 129.702 70.5456C129.702 75.8855 138.365 75.9117 138.365 78.8695C138.365 79.7072 137.683 80.3354 136.606 80.3354H134.847C133.902 80.3354 133.115 79.5501 133.115 78.6078V77.8225H129.439Z" fill="#070B0E"/>
</svg>
