<svg width="256" height="128" viewBox="0 0 256 128" fill="none" xmlns="http://www.w3.org/2000/svg">
<path fill-rule="evenodd" clip-rule="evenodd" d="M242.557 74.8721C242.417 74.7215 242.249 74.6007 242.062 74.5173C241.808 74.4033 241.541 74.3218 241.267 74.2748C240.879 74.2071 240.485 74.1759 240.09 74.1816C239.836 74.1815 239.583 74.1973 239.331 74.2288C239.105 74.2551 238.883 74.3029 238.667 74.3714C238.493 74.4231 238.331 74.5107 238.193 74.6285C238.137 74.677 238.092 74.7372 238.061 74.8048C238.031 74.8725 238.015 74.9461 238.016 75.0203C238.016 75.0959 238.035 75.1702 238.07 75.2371C238.127 75.3273 238.208 75.3994 238.305 75.4448C238.473 75.5286 238.652 75.5905 238.836 75.6289C239.142 75.6964 239.452 75.7455 239.764 75.776L241.609 76.014C242.004 76.0613 242.395 76.1413 242.777 76.2532C243.086 76.3422 243.38 76.4746 243.651 76.6462C243.875 76.7868 244.063 76.9793 244.198 77.2076C244.326 77.4353 244.391 77.6937 244.386 77.9554C244.398 78.3164 244.291 78.6715 244.082 78.9659C243.864 79.2529 243.58 79.4838 243.256 79.6396C242.871 79.8265 242.461 79.9541 242.038 80.018C241.549 80.0956 241.055 80.1331 240.56 80.1302C239.866 80.1481 239.173 80.0726 238.5 79.9057C238.046 79.7882 237.611 79.6059 237.209 79.3645C236.937 79.2018 236.699 78.9866 236.509 78.7312C236.392 78.5732 236.297 78.4003 236.225 78.217L237.691 77.8206C237.773 77.9595 237.869 78.0903 237.976 78.2114C238.118 78.3693 238.288 78.5001 238.477 78.5976C238.743 78.7345 239.026 78.8353 239.319 78.8974C240.032 79.0351 240.762 79.0537 241.481 78.9524C241.728 78.9173 241.97 78.8556 242.203 78.7683C242.382 78.7039 242.548 78.6055 242.69 78.4786C242.747 78.4302 242.792 78.3702 242.823 78.3026C242.855 78.2349 242.871 78.1613 242.871 78.0867C242.871 77.6503 242.307 77.3704 241.178 77.2469L239.312 77.0223C238.576 76.9736 237.861 76.7525 237.226 76.3767C237.007 76.2474 236.824 76.0631 236.698 75.8418C236.571 75.6205 236.504 75.3699 236.503 75.1147C236.494 74.8177 236.571 74.5245 236.727 74.2714C236.877 74.0415 237.075 73.8466 237.307 73.6999C237.55 73.5465 237.814 73.4303 238.091 73.3552C238.365 73.2787 238.645 73.2198 238.926 73.1789C239.169 73.1449 239.412 73.1239 239.657 73.1161C239.875 73.1093 240.033 73.106 240.134 73.106C240.818 73.0892 241.501 73.1613 242.167 73.3204C242.596 73.4257 243.006 73.5969 243.383 73.8279C243.63 73.9783 243.842 74.1801 244.004 74.4196C244.1 74.5714 244.186 74.7297 244.26 74.8935L242.827 75.2988C242.758 75.1441 242.665 75.0012 242.552 74.8755L242.557 74.8721ZM233.735 78.839V79.9618H226.634V73.2733H233.607V74.3961H228.148V75.9568H232.846V77.0796H228.148V78.848H233.735V78.839ZM221.557 75.1225C221.439 74.9658 221.294 74.8312 221.128 74.7251C220.895 74.573 220.641 74.4551 220.375 74.3747C220.001 74.2635 219.613 74.212 219.223 74.222C218.757 74.2126 218.291 74.2747 217.843 74.4062C217.495 74.5084 217.173 74.6828 216.897 74.9182C216.656 75.1272 216.468 75.3914 216.35 75.6884C216.23 75.9968 216.171 76.3253 216.174 76.6563C216.164 76.996 216.237 77.3331 216.386 77.6384C216.535 77.9436 216.756 78.2077 217.03 78.4079C217.312 78.6145 217.629 78.7668 217.966 78.857C218.348 78.9616 218.742 79.013 219.138 79.0097C219.527 79.0168 219.915 78.9653 220.289 78.857C220.576 78.7739 220.85 78.6507 221.103 78.4909C221.297 78.3662 221.469 78.209 221.611 78.0261C221.715 77.894 221.795 77.7441 221.846 77.5837H223.366C223.337 77.7363 223.296 77.8865 223.244 78.0328C223.173 78.2256 223.08 78.4092 222.965 78.5797C222.826 78.786 222.663 78.9745 222.478 79.1411C222.248 79.3447 221.988 79.5117 221.708 79.6362C221.344 79.7995 220.963 79.9197 220.572 79.9944C220.061 80.0921 219.541 80.138 219.02 80.1314C218.438 80.1343 217.859 80.0587 217.297 79.9068C216.792 79.7747 216.318 79.5459 215.9 79.2331C215.504 78.9346 215.183 78.5475 214.962 78.1025C214.724 77.6064 214.607 77.0607 214.62 76.5103C214.616 76.047 214.709 75.5881 214.893 75.1629C215.078 74.7402 215.363 74.3688 215.723 74.0806C216.142 73.7531 216.62 73.5106 217.131 73.3665C217.784 73.1839 218.46 73.0973 219.138 73.1093C219.643 73.1018 220.148 73.1507 220.642 73.2553C221.016 73.3364 221.379 73.4611 221.723 73.6269C222.2 73.8578 222.607 74.2125 222.902 74.6543C222.997 74.7992 223.077 74.9535 223.141 75.1147C223.192 75.2494 223.227 75.3471 223.253 75.4088H221.728C221.681 75.309 221.623 75.2146 221.556 75.127L221.557 75.1225ZM209.989 73.2733H211.504V79.9573H209.989V73.2733ZM203.045 79.9573H201.46L197.703 73.2733H199.329L202.253 78.6066L205.227 73.2733H206.853L203.045 79.9573ZM193.216 74.8149C193.129 74.6852 193.006 74.585 192.861 74.5274C192.671 74.4521 192.472 74.4052 192.268 74.3882C191.997 74.362 191.725 74.3497 191.452 74.3512H188.505V76.2509H191.452C191.725 76.2524 191.997 76.24 192.268 76.2139C192.472 76.197 192.671 76.1501 192.861 76.0747C193.007 76.0165 193.131 75.9145 193.216 75.7827C193.3 75.6349 193.341 75.4665 193.334 75.2966C193.341 75.128 193.3 74.9609 193.216 74.8149ZM194.194 76.6967C193.986 76.8664 193.75 76.9972 193.496 77.0829C193.231 77.1763 192.954 77.2289 192.673 77.239L195.059 79.9585H193.188L190.923 77.3311H188.507V79.9585H186.994V73.2733H191.677C192.102 73.2711 192.526 73.2989 192.947 73.3564C193.298 73.3991 193.639 73.5016 193.955 73.6595C194.227 73.7971 194.455 74.0074 194.615 74.2669C194.784 74.5736 194.865 74.9208 194.85 75.2707C194.856 75.5537 194.795 75.834 194.673 76.0893C194.559 76.3232 194.397 76.5303 194.197 76.6967H194.194ZM183.965 78.839V79.9618H176.864V73.2733H183.838V74.3961H178.378V75.9568H183.076V77.0796H178.378V78.848H183.965V78.839ZM172.092 74.8733C171.953 74.7228 171.785 74.6022 171.597 74.5185C171.344 74.4044 171.076 74.323 170.802 74.2759C170.414 74.2081 170.019 74.1769 169.625 74.1827C169.372 74.1826 169.119 74.1984 168.868 74.2299C168.64 74.2557 168.415 74.3035 168.196 74.3725C168.022 74.4242 167.861 74.5118 167.723 74.6296C167.667 74.678 167.622 74.7381 167.591 74.8058C167.561 74.8735 167.545 74.9472 167.546 75.0215C167.546 75.0969 167.564 75.1712 167.599 75.2382C167.656 75.3286 167.738 75.4007 167.835 75.4459C168.003 75.5296 168.181 75.5914 168.365 75.63C168.671 75.6974 168.981 75.7465 169.293 75.7771L171.138 76.0174C171.534 76.0644 171.924 76.1444 172.306 76.2566C172.615 76.3456 172.91 76.4779 173.181 76.6495C173.406 76.7901 173.593 76.9827 173.728 77.2109C173.856 77.4388 173.921 77.6971 173.915 77.9587C173.927 78.3197 173.821 78.6747 173.612 78.9693C173.394 79.2563 173.11 79.4872 172.785 79.6429C172.4 79.8301 171.99 79.9577 171.567 80.0213C171.079 80.0989 170.584 80.1365 170.09 80.1336C169.396 80.1515 168.703 80.076 168.03 79.9091C167.576 79.792 167.141 79.6097 166.74 79.3679C166.467 79.2051 166.228 78.9899 166.038 78.7346C165.923 78.5758 165.827 78.403 165.754 78.2204L167.221 77.824C167.304 77.9626 167.398 78.0934 167.505 78.2147C167.648 78.3722 167.819 78.5029 168.008 78.601C168.273 78.7379 168.556 78.8387 168.849 78.9008C169.561 79.0385 170.292 79.0571 171.01 78.9558C171.257 78.9208 171.499 78.8591 171.733 78.7716C171.912 78.707 172.077 78.6087 172.219 78.482C172.276 78.4336 172.321 78.3736 172.353 78.306C172.384 78.2384 172.401 78.1647 172.402 78.0901C172.402 77.6537 171.837 77.3738 170.708 77.2502L168.842 77.0257C168.106 76.9772 167.392 76.756 166.756 76.3801C166.536 76.2516 166.353 76.0674 166.227 75.8459C166.1 75.6245 166.033 75.3735 166.033 75.118C166.023 74.8209 166.101 74.5275 166.257 74.2748C166.406 74.0449 166.603 73.8499 166.835 73.7033C167.078 73.5504 167.342 73.4343 167.619 73.3586C168.13 73.2162 168.657 73.1359 169.187 73.1194C169.411 73.1127 169.564 73.1093 169.665 73.1093C170.349 73.0925 171.032 73.1646 171.697 73.3238C172.127 73.4291 172.537 73.6002 172.915 73.8313C173.161 73.9819 173.373 74.1837 173.535 74.423C173.631 74.5756 173.717 74.7338 173.793 74.8968L172.357 75.3022C172.289 75.1475 172.196 75.0046 172.084 74.8789L172.092 74.8733ZM157.533 78.8446V79.9674H150.431V73.2733H157.404V74.3961H151.945V75.9568H156.649V77.0796H151.945V78.848H157.533V78.8446ZM142.852 76.5238H146.996V80.0359H146.074L145.776 79.3465C145.626 79.4307 145.463 79.5183 145.285 79.6081C145.086 79.7048 144.881 79.7892 144.672 79.8608C144.414 79.9466 144.149 80.0108 143.88 80.0528C143.546 80.1051 143.209 80.1299 142.872 80.1269C142.532 80.1261 142.193 80.1013 141.857 80.0528C141.514 80.0058 141.177 79.9257 140.849 79.8136C140.527 79.7044 140.218 79.5578 139.929 79.3768C139.645 79.1991 139.391 78.9765 139.177 78.7178C138.956 78.4477 138.785 78.141 138.669 77.8116C138.54 77.4309 138.477 77.0305 138.483 76.6282C138.483 76.1811 138.567 75.7378 138.729 75.3213C138.897 74.8938 139.16 74.51 139.497 74.1985C139.887 73.8458 140.344 73.5764 140.841 73.4069C141.482 73.1928 142.154 73.0918 142.829 73.1082C143.28 73.1078 143.729 73.1454 144.173 73.2205C144.602 73.2906 145.018 73.4186 145.412 73.6011C145.778 73.7691 146.11 74.004 146.39 74.2939C146.67 74.5885 146.861 74.9569 146.94 75.3561H145.391C145.333 75.244 145.266 75.1363 145.193 75.0338C145.086 74.8858 144.953 74.7587 144.801 74.6588C144.588 74.5218 144.356 74.418 144.112 74.3512C143.752 74.2538 143.381 74.2088 143.009 74.2175C142.498 74.2009 141.988 74.2805 141.506 74.4522C141.161 74.5814 140.847 74.7827 140.586 75.0428C140.375 75.2591 140.216 75.5211 140.122 75.8086C140.042 76.054 139.998 76.3103 139.994 76.5687C139.988 76.9298 140.065 77.2875 140.218 77.614C140.36 77.9061 140.567 78.1619 140.822 78.3618C141.096 78.5689 141.406 78.7213 141.737 78.8109C142.111 78.916 142.498 78.9674 142.886 78.9636C143.497 78.9945 144.105 78.8791 144.662 78.6268C145.087 78.4027 145.415 78.0282 145.581 77.5759H142.852V76.5238ZM131.392 74.3298L129.765 77.3086H133.019L131.392 74.3298ZM134.432 79.9618L133.618 78.4269H129.137L128.313 79.9618H126.697L130.529 73.2778H132.256L136.036 79.9618H134.43H134.432ZM123.603 78.4797C123.414 78.8596 123.13 79.1843 122.78 79.4229C122.385 79.6845 121.944 79.8675 121.481 79.9618C120.347 80.1885 119.181 80.1885 118.048 79.9618C117.584 79.8676 117.143 79.6846 116.749 79.4229C116.399 79.1847 116.115 78.8598 115.926 78.4797C115.722 78.0475 115.623 77.5732 115.637 77.0953V73.2778H117.151V77.0021C117.151 77.2651 117.189 77.5268 117.263 77.7791C117.337 78.0236 117.473 78.2444 117.659 78.4191C117.888 78.6231 118.162 78.7714 118.457 78.8525C119.32 79.06 120.219 79.06 121.082 78.8525C121.378 78.7719 121.651 78.6235 121.88 78.4191C122.068 78.2451 122.205 78.0241 122.278 77.7791C122.352 77.5268 122.39 77.2652 122.39 77.0021V73.2733H123.903V77.0908C123.917 77.5686 123.818 78.0429 123.614 78.4752L123.603 78.4797ZM108.068 76.5238H112.212V80.0359H111.286L110.985 79.3465C110.836 79.4307 110.673 79.5183 110.494 79.6081C110.295 79.7051 110.09 79.7895 109.88 79.8608C109.622 79.9468 109.358 80.011 109.089 80.0528C108.756 80.1051 108.419 80.1299 108.081 80.1269C107.741 80.1272 107.402 80.1035 107.065 80.0561C106.722 80.0088 106.385 79.9287 106.057 79.817C105.735 79.7081 105.427 79.5615 105.139 79.3802C104.854 79.2025 104.599 78.9799 104.385 78.7211C104.164 78.4512 103.992 78.1445 103.877 77.815C103.747 77.4343 103.684 77.0339 103.69 76.6316C103.69 76.1843 103.774 75.7409 103.937 75.3246C104.105 74.8968 104.367 74.5128 104.705 74.2018C105.095 73.8486 105.552 73.5792 106.049 73.4102C106.689 73.1963 107.362 73.0952 108.036 73.1116C108.487 73.1112 108.936 73.1488 109.38 73.2239C109.809 73.294 110.226 73.422 110.62 73.6045C110.986 73.7729 111.318 74.0078 111.598 74.2973C111.878 74.592 112.069 74.9603 112.148 75.3594H110.602C110.544 75.2474 110.478 75.1397 110.404 75.0372C110.296 74.8895 110.162 74.7631 110.009 74.6644C109.796 74.5273 109.563 74.4236 109.319 74.3568C108.961 74.2578 108.59 74.2109 108.219 74.2175C107.708 74.2026 107.199 74.2837 106.718 74.4567C106.373 74.586 106.06 74.7874 105.798 75.0473C105.587 75.2634 105.428 75.5254 105.334 75.8131C105.253 76.0586 105.21 76.3148 105.206 76.5732C105.199 76.9343 105.276 77.2921 105.43 77.6185C105.571 77.911 105.778 78.167 106.034 78.3663C106.307 78.5736 106.618 78.7261 106.949 78.8154C107.323 78.9206 107.71 78.972 108.098 78.9681C108.708 78.9991 109.317 78.8836 109.873 78.6313C110.299 78.4068 110.626 78.0325 110.793 77.5804H108.056V76.5238H108.068ZM99.1821 79.9573L93.7642 74.9541V79.9573H92.3081V73.2733H93.9143L99.1182 78.1013V73.2733H100.574V79.9573H99.1708H99.1821ZM84.705 74.3298L83.0843 77.3041H86.3325L84.705 74.3298ZM87.7449 79.9618L86.9317 78.4269H82.4514L81.6282 79.9573H80.0063L83.8392 73.2733H85.5731L89.3567 79.9573H87.7449V79.9618ZM70.7119 79.9618V73.2733H72.2262V78.7997H77.8669V79.9573H70.7119V79.9618ZM244.499 66.9754V69.1088H230.511V56.4143H244.246V58.5476H233.511V61.4883H242.753V63.6216H233.511V66.9754H244.5H244.499ZM214.431 69.1088V56.4143H217.43V66.8968H228.524V69.1076H214.431V69.1088ZM208.047 63.8653C207.274 63.5863 206.455 63.4586 205.634 63.4891H199.152V67.0529H205.634C206.076 67.0548 206.516 67.0316 206.955 66.9833C207.317 66.9487 207.671 66.8574 208.004 66.7127C208.281 66.5914 208.521 66.3974 208.697 66.1513C208.874 65.8788 208.962 65.5578 208.949 65.2328C208.967 64.9373 208.888 64.6439 208.726 64.3968C208.563 64.1496 208.325 63.9619 208.047 63.8619V63.8653ZM207.699 58.8003C207.018 58.5355 206.288 58.4206 205.558 58.4634H199.152V61.4288H205.558C206.288 61.4712 207.017 61.3564 207.699 61.0919C207.912 60.9922 208.091 60.83 208.211 60.6266C208.331 60.4231 208.387 60.1881 208.371 59.9523C208.388 59.7139 208.334 59.4756 208.214 59.269C208.094 59.0624 207.914 58.897 207.699 58.7947V58.8003ZM211.171 63.3858C211.402 63.6553 211.59 63.9581 211.731 64.2841C211.884 64.6423 211.96 65.0286 211.955 65.4181C211.97 65.9798 211.827 66.5344 211.543 67.0186C211.258 67.5028 210.844 67.8971 210.347 68.1566C208.985 68.8509 207.466 69.1757 205.94 69.0987H196.161V56.4143H205.38C206.2 56.4088 207.019 56.4643 207.831 56.5805C208.487 56.6674 209.125 56.8528 209.726 57.1307C210.213 57.3555 210.634 57.7038 210.946 58.1412C211.245 58.5935 211.396 59.1281 211.377 59.6705C211.386 60.0207 211.333 60.3698 211.219 60.7012C211.031 61.2114 210.683 61.6467 210.228 61.9419C210.023 62.0773 209.81 62.1999 209.59 62.3091C209.881 62.4142 210.158 62.5548 210.414 62.7279C210.697 62.916 210.953 63.1427 211.174 63.4015L211.171 63.3858ZM185.46 58.4062L182.261 64.0618H188.661L185.46 58.4062ZM191.44 69.1076L189.839 66.194H181.018L179.399 69.1076H176.219L183.755 56.4132H187.165L194.596 69.1076H191.44ZM172.258 60.754C171.979 60.2109 171.544 59.7642 171.009 59.4717C170.326 59.1074 169.584 58.8682 168.817 58.7655C167.755 58.6055 166.682 58.5304 165.607 58.5409H162.583V66.9754H165.607C166.693 66.99 167.778 66.9081 168.85 66.7307C169.618 66.6111 170.357 66.3507 171.031 65.9627C171.563 65.6505 171.994 65.1897 172.269 64.6366C172.527 64.0217 172.659 63.3611 172.657 62.6942C172.655 62.0272 172.519 61.3674 172.258 60.754ZM175.026 65.5113C174.606 66.313 174 67.0019 173.26 67.52C172.436 68.084 171.516 68.4895 170.545 68.7158C169.407 68.9876 168.241 69.1196 167.072 69.1088H159.586V56.4143H166.948C168.089 56.4066 169.227 56.5195 170.344 56.7512C171.322 56.9466 172.258 57.313 173.11 57.8335C173.881 58.3142 174.521 58.9803 174.971 59.7715C175.45 60.6633 175.686 61.666 175.655 62.6785C175.679 63.6587 175.462 64.6298 175.025 65.5068L175.026 65.5113ZM153.485 59.3404C153.314 59.0932 153.073 58.9039 152.792 58.798C152.423 58.655 152.035 58.5665 151.641 58.5353C151.112 58.4851 150.58 58.4615 150.048 58.4646H144.304V62.0575H150.048C150.646 62.0575 151.177 62.0343 151.641 61.9879C152.035 61.957 152.423 61.8685 152.792 61.7252C153.075 61.6178 153.316 61.4251 153.485 61.1739C153.648 60.8961 153.729 60.5767 153.715 60.2543C153.729 59.935 153.649 59.6187 153.485 59.3448V59.3404ZM155.432 62.903C155.023 63.2263 154.56 63.4745 154.065 63.6362C153.542 63.8113 152.997 63.9111 152.446 63.9326L157.142 69.1088H153.457L149.031 64.1123H144.309V69.1076H141.309V56.4143H150.494C151.327 56.41 152.16 56.4625 152.986 56.5715C153.672 56.6527 154.34 56.8469 154.963 57.1464C155.491 57.4037 155.938 57.8019 156.255 58.2973C156.586 58.8739 156.747 59.5333 156.717 60.1982C156.727 60.7362 156.608 61.2688 156.37 61.751C156.145 62.1981 155.826 62.5911 155.436 62.903H155.432ZM135.471 60.7293C135.161 60.169 134.722 59.6909 134.19 59.3347C133.599 58.9424 132.941 58.6616 132.249 58.5061C130.653 58.1458 128.996 58.1458 127.4 58.5061C126.708 58.6614 126.05 58.9423 125.458 59.3347C124.901 59.7 124.448 60.2037 124.142 60.7968C123.837 61.3898 123.69 62.052 123.716 62.7189C123.687 63.4984 123.881 64.27 124.276 64.942C124.634 65.5168 125.123 65.9982 125.703 66.3467C126.309 66.7055 126.974 66.9537 127.667 67.0799C129.094 67.3577 130.562 67.3577 131.989 67.0799C132.682 66.9537 133.347 66.7055 133.954 66.3467C134.533 65.9976 135.022 65.5164 135.381 64.942C135.73 64.2982 135.92 63.5802 135.937 62.8476C135.953 62.1151 135.795 61.3892 135.475 60.7304L135.471 60.7293ZM138.526 64.9971C138.22 65.8096 137.731 66.5399 137.096 67.1304C136.289 67.8639 135.34 68.4227 134.308 68.7719C131.384 69.6436 128.271 69.6436 125.347 68.7719C124.315 68.4233 123.366 67.8644 122.559 67.1304C121.924 66.5403 121.434 65.8099 121.129 64.9971C120.871 64.3149 120.732 63.5932 120.719 62.8637C120.717 62.0003 120.878 61.1444 121.193 60.3408C121.528 59.5051 122.062 58.7648 122.75 58.185C123.579 57.4976 124.537 56.9838 125.568 56.6737C128.357 55.9171 131.297 55.9171 134.086 56.6737C135.117 56.9839 136.075 57.4978 136.904 58.185C137.592 58.7643 138.127 59.5047 138.461 60.3408C138.776 61.1443 138.937 62.0003 138.935 62.8637C138.921 63.5931 138.783 64.3147 138.526 64.9971ZM108.628 58.5465V61.4872H118.164V63.6205H108.628V69.1088H105.629V56.4143H119.723V58.5476H108.628V58.5465ZM92.5489 58.5465V61.4872H102.084V63.6205H92.5489V69.1088H89.5494V56.4143H103.642V58.5476H92.5534L92.5489 58.5465ZM78.8616 58.4062L75.6626 64.0618H82.0616L78.8616 58.4062ZM84.8406 69.1076L83.2411 66.194H74.4216L72.8008 69.1076H69.622L77.1568 56.4132H80.5674L87.9981 69.1076H84.8406ZM51.8139 79.7328L47.0737 71.5228H27.4163C27.4163 71.5228 38.8411 51.7861 39.3541 51.0439C49.0663 65.7965 63.6509 67.2909 50.0598 96H51.2617C75.9225 61.0526 48.4985 55.9315 39.3541 32C39.0652 32.4604 11.5 79.7328 11.5 79.7328H51.8139Z" fill="#070B0E"/>
</svg>
