<svg width="256" height="128" viewBox="0 0 256 128" fill="none" xmlns="http://www.w3.org/2000/svg">
<path d="M58.3731 63.7595C58.2422 59.5867 56.9629 59.555 54.0414 59.555H52.5974V69.9857H55.5514V70.66H46V69.9857H48.9539V48.6743H46V48H62.7049L63.0989 54.4201H62.5416C62.2136 52.4935 61.6887 50.729 60.3096 49.6047C59.1612 48.6426 58.1113 48.6743 55.7147 48.6743H52.5974V58.849H53.9753C56.6013 58.8173 57.5526 58.7843 58.0115 57.404C58.2422 56.7626 58.3407 55.2225 58.3407 54.5152H58.9642V63.7595H58.3731Z" fill="#070B0E"/>
<path d="M67.3437 48.5125C68.426 48.5125 69.2789 49.3465 69.2789 50.4062C69.2789 51.4646 68.426 52.2999 67.3437 52.2999C66.2601 52.2999 65.4073 51.4646 65.4073 50.4062C65.4073 49.3465 66.2601 48.5125 67.3437 48.5125ZM63.7002 57.4348H69.0171V69.9848H71.1505V70.6591H63.6678V69.9848H65.9322V58.1091H63.7002V57.4348Z" fill="#070B0E"/>
<path d="M80.3487 58.1082H76.8361V67.6731C76.8361 68.6682 76.8037 70.0156 78.4446 70.0156C80.0855 70.0156 80.315 68.7011 80.4135 68.1865H81.1354C80.9721 68.9572 80.512 71.0436 77.4595 71.0436C75.8523 71.0436 74.5393 70.4339 74.0467 69.1498C73.7836 68.5402 73.7836 67.8341 73.7836 66.1977V58.1082H71.6501V57.6595C72.8659 57.1449 73.8497 56.2474 74.6702 55.2524C75.9508 53.744 76.1802 52.7807 76.3435 52.1063H76.8361V57.4351H80.3487V58.1082Z" fill="#070B0E"/>
<path d="M94.2292 66.3595C93.7691 68.6386 92.0297 71.0457 88.486 71.0457C84.6454 71.0457 81.7239 67.9643 81.7239 64.1768C81.7239 60.0357 85.0058 57.0519 88.8787 57.0519C91.9311 57.0519 93.8028 58.9127 93.8028 60.5187C93.8028 61.5454 93.0795 62.3161 92.1282 62.3161C91.1768 62.3161 90.587 61.4807 90.587 60.6137C90.587 59.876 90.9798 59.3627 91.2416 59.1053C91.3414 58.9773 91.4062 58.9127 91.4062 58.7847C91.4062 58.4957 90.587 57.6933 88.8139 57.6933C87.8949 57.6933 86.5158 57.9176 85.8599 59.4907C85.335 60.7418 85.3013 63.6951 85.3013 65.1402C85.3013 66.2315 85.3013 67.4509 85.6305 68.3496C85.9909 69.4093 86.8774 70.3397 88.5845 70.3397C91.3414 70.3397 92.9486 68.285 93.4088 66.3595H94.2292Z" fill="#070B0E"/>
<path d="M94.8801 48H100.098V59.3306C100.657 58.6246 102.167 57.0516 105.087 57.0516C106.925 57.0516 108.14 57.6613 108.763 58.3356C109.518 59.1697 109.551 60.4854 109.551 61.3524V69.9857H111.717V70.66H104.233V69.9857H106.334V61.1597C106.334 59.811 106.367 58.0137 104.135 58.0137C103.807 58.0137 102.363 58.0137 101.248 59.394C100.231 60.678 100.165 61.9621 100.098 64.5618V69.9857H102.2V70.66H94.7167V69.9857H96.915V48.6743H94.8801V48Z" fill="#070B0E"/>
<path d="M120.036 48.706V58.2393H121.218C122.628 58.2393 124.598 58.2393 125.779 57.404C126.994 56.5699 127.355 55.0298 127.355 53.5531C127.355 52.5898 127.125 51.1461 126.501 50.2791C125.32 48.6743 123.155 48.706 121.152 48.706H120.036ZM133.788 70.243C132.869 70.7247 131.917 70.821 131.326 70.821C130.309 70.821 129.128 70.532 128.176 69.6979C126.6 68.3493 126.535 66.4239 126.501 64.6582L126.436 63.2461C126.37 61.9621 126.239 60.133 124.303 59.3623C123.352 58.977 122.3 58.9453 120.068 59.0099V69.9857H122.99V70.66H113.438V69.9857H116.393V48.6743H113.34V48H122.431C125.025 48 127.454 48.033 129.357 49.3804C130.834 50.44 131.359 51.8838 131.359 53.2325C131.359 56.4736 128.307 58.4636 124.269 58.7209C126.666 59.0416 128.011 60.0367 128.537 60.4854C130.671 62.3157 130.636 64.6265 130.605 66.1349V67.0335C130.571 67.8676 130.605 68.3493 130.703 68.7663C130.867 69.3773 131.326 70.0186 132.18 70.0186C132.474 70.0186 132.869 69.9223 133.558 69.665L133.788 70.243Z" fill="#070B0E"/>
<path d="M142.843 63.9195C140.282 63.9525 137.756 64.6902 137.756 67.3216C137.756 68.8946 138.774 69.569 139.823 69.569C140.742 69.569 141.366 69.0873 141.661 68.8313C142.712 67.835 142.777 66.7119 142.843 65.0755V63.9195ZM145.895 68.2533C145.895 69.3446 145.895 70.114 146.649 70.114C147.077 70.114 147.438 69.7287 147.668 69.5373L148.06 69.986C147.734 70.3067 146.978 71.0457 145.6 71.0457C144.878 71.0457 144.189 70.8201 143.696 70.436C142.941 69.825 142.843 69.0227 142.777 68.3813C142.055 69.7933 140.612 71.0457 138.38 71.0457C136.311 71.0457 134.67 69.8897 134.67 67.8996C134.67 65.9425 136.18 64.5622 138.38 63.8878C139.823 63.4708 141.629 63.3415 142.843 63.3415V60.1321C142.777 59.2017 142.713 57.6933 140.545 57.6933C139.069 57.6933 137.853 58.559 137.853 59.0407C137.853 59.426 138.543 59.8431 138.543 60.582C138.543 61.2881 137.919 61.9624 137.033 61.9624C136.147 61.9624 135.589 61.2551 135.589 60.4528C135.589 58.881 137.722 57.0519 141.038 57.0519C142.613 57.0519 144.155 57.564 144.977 58.3347C145.895 59.2663 145.895 60.3247 145.895 61.5441V68.2533Z" fill="#070B0E"/>
<path d="M156.51 58.1082H152.999V67.6731C152.999 68.6682 152.965 70.0156 154.606 70.0156C156.247 70.0156 156.476 68.7011 156.575 68.1865H157.297C157.133 68.9572 156.674 71.0436 153.621 71.0436C152.013 71.0436 150.7 70.4339 150.208 69.1498C149.945 68.5402 149.945 67.8341 149.945 66.1977V58.1082H147.811V57.6595C149.027 57.1449 150.011 56.2474 150.831 55.2524C152.112 53.744 152.341 52.7807 152.505 52.1063H152.999V57.4351H156.51V58.1082Z" fill="#070B0E"/>
<path d="M162.103 48.5125C163.186 48.5125 164.039 49.3465 164.039 50.4062C164.039 51.4646 163.186 52.2999 162.103 52.2999C161.019 52.2999 160.166 51.4646 160.166 50.4062C160.166 49.3465 161.019 48.5125 162.103 48.5125ZM158.459 57.4348H163.776V69.9848H165.909V70.6591H158.427V69.9848H160.691V58.1091H158.459V57.4348Z" fill="#070B0E"/>
<path d="M174.8 70.6603H167.35V69.986H169.482V58.1103H167.35V57.4373H172.601V59.3627C174.243 57.1153 176.475 57.0519 177.031 57.0519C178.345 57.0519 179.625 57.564 180.413 58.3676C180.873 58.8493 181.496 59.5553 181.496 61.8014V69.986H183.661V70.6603H176.309V69.986H178.378V61.3527C178.345 60.0357 178.313 59.7797 178.247 59.459C177.919 58.1433 176.803 57.9823 176.309 57.9823C175.587 57.9823 174.833 58.2713 174.211 58.753C172.667 60.004 172.633 61.9307 172.601 64.3695V69.986H174.8V70.6603Z" fill="#070B0E"/>
<path d="M193.537 58.8496C193.274 58.1436 192.684 57.6936 191.502 57.6936C189.402 57.6936 189.336 59.1703 189.271 60.358C189.236 61.4164 189.236 61.6091 189.236 63.3748C189.236 64.3369 189.271 65.9745 191.405 65.9745C192.125 65.9745 192.749 65.7502 193.078 65.3649C193.569 64.8832 193.635 64.4662 193.669 61.5457C193.669 60.5824 193.701 59.3947 193.537 58.8496ZM191.863 73.0361C190.648 73.0361 189.171 73.0361 188.22 72.9714C187.695 73.5177 187.072 74.2555 187.072 75.5712C187.072 77.1125 188.188 79.1343 191.24 79.1343C195.998 79.1343 197.41 75.9565 197.41 74.3835C197.41 72.9068 196.491 72.9068 194.619 72.9397L191.863 73.0361ZM194.063 70.018C195.801 69.9863 198.493 69.9863 198.493 73.5811C198.493 77.2722 195.604 80 191.24 80C187.695 80 184.938 78.1392 184.938 75.8931C184.938 74.5762 185.956 73.3251 187.629 72.8434C186.054 72.33 185.037 71.3984 185.037 69.8583C185.037 69.0243 185.397 67.9 186.579 66.8086C187.104 66.3599 187.53 66.0709 188.121 65.7172C186.676 64.7552 185.956 63.5028 185.956 61.8018C185.956 58.7533 188.646 57.0839 191.535 57.0839C193.274 57.0839 194.39 57.5973 195.407 58.496C196.097 57.8217 196.918 57.2449 197.869 57.2449C198.821 57.2449 199.543 57.8546 199.543 58.657C199.543 59.2667 199.083 59.908 198.263 59.908C197.41 59.908 197.213 59.33 197.114 59.0094L197.049 58.7216C197.016 58.5923 196.95 58.368 196.655 58.368C196.36 58.368 196.097 58.6887 195.867 58.913C196.589 59.8117 196.983 60.8067 196.983 61.9627C196.983 64.8515 194.39 66.6172 191.405 66.6172C190.484 66.6172 189.533 66.4562 188.745 66.0392C187.433 67.0342 186.448 67.8036 186.448 68.7987C186.448 70.1156 187.924 70.0827 189.171 70.051L194.063 70.018Z" fill="#070B0E"/>
<path d="M200.975 70.6603H200.516V65.6206H201.106L201.598 67.1619C202.255 68.991 203.633 70.2116 205.602 70.2116C207.474 70.2116 208.721 68.8946 208.721 67.6753C208.721 66.1022 207.145 65.7815 205.996 65.5572L204.979 65.3962C204.026 65.2365 203.173 65.0755 202.517 64.6902C201.466 64.1134 200.647 62.8611 200.647 61.2564C200.647 58.9773 202.32 57.0519 204.782 57.0519C206.161 57.0519 207.374 57.6616 208.13 58.303L208.721 57.2446H209.278V61.2247H208.655C208.359 59.3627 206.883 57.8543 204.749 57.8543C202.911 57.8543 201.828 59.2017 201.828 60.165C201.828 61.6734 203.83 61.7697 204.618 61.9941L205.799 62.2185C207.047 62.4758 210 62.9891 210 66.5193C210 68.8946 208.261 71.0457 205.536 71.0457C203.83 71.0457 202.648 70.275 201.795 69.6007L200.975 70.6603Z" fill="#070B0E"/>
</svg>
