<svg width="256" height="128" viewBox="0 0 256 128" fill="none" xmlns="http://www.w3.org/2000/svg">
<path d="M108.197 44.2759C110.169 44.2759 112.14 44.7172 114.112 45.6C115.133 46.0414 115.978 46.7035 116.647 47.5862C117.316 48.469 117.65 49.5908 117.65 50.9517C117.65 52.2759 116.946 53.8391 115.538 55.6414C114.165 57.4069 112.422 59.0069 110.31 60.4414C105.838 76.1471 99.29 84 90.6643 84C88.8335 84 87.2492 83.5586 85.9114 82.6759C84.6087 81.7931 83.6581 80.7264 83.0596 79.4759C81.7922 76.7908 81.1232 74.4552 81.0528 72.469L81 71.1448C81 69.1218 81.7922 66.0506 83.3765 61.931C84.9608 57.7379 87.7421 53.8023 91.7205 50.1241C93.6217 48.3954 95.9981 46.9977 98.8499 45.931C101.737 44.8276 104.853 44.2759 108.197 44.2759ZM99.1668 62.2621C98.7443 62.0414 98.3394 61.7287 97.9521 61.3241C97.6001 60.9195 97.424 60.4782 97.424 60C97.424 59.5218 97.7761 59.0805 98.4802 58.6759C101.262 57.4253 103.304 56.2115 104.606 55.0345C104.853 54.6667 105.064 54.4828 105.24 54.4828C105.451 54.4828 105.557 54.7034 105.557 55.1448C105.557 55.5494 105.064 56.0828 104.078 56.7448C103.374 57.3333 103.022 57.7195 103.022 57.9034C103.022 57.9402 103.039 57.9586 103.075 57.9586C103.779 57.9586 105.645 56.5793 108.673 53.8207C111.7 51.0621 113.214 49.2414 113.214 48.3586C113.214 47.7701 112.704 47.4759 111.683 47.4759C108.444 47.4759 105.363 48.2667 102.441 49.8483C99.554 51.3931 97.1248 53.3425 95.1532 55.6966C93.2168 58.0138 91.5093 60.5333 90.0306 63.2552C88.5871 65.977 87.5133 68.5333 86.8091 70.9241C86.1402 73.2782 85.8057 75.2092 85.8057 76.7172C85.8057 78.1885 86.2634 78.9241 87.1788 78.9241C89.6433 78.9241 92.6359 77.8207 96.1566 75.6138C98.0225 74.4 100.047 72.5793 102.23 70.1517C104.448 67.6874 106.613 64.7448 108.726 61.3241C106.472 62.6115 104.377 63.2552 102.441 63.2552C102.23 63.2552 101.737 63.1448 100.962 62.9241C100.223 62.7034 99.6245 62.4828 99.1668 62.2621Z" fill="#070B0E"/>
<path d="M131.924 44C133.755 44 134.671 44.5149 134.671 45.5448C134.671 47.0529 133.28 49.3333 130.499 52.3862C127.753 55.4391 124.989 58.1057 122.207 60.3862L118.088 63.8621C117.877 64.1195 117.771 64.3218 117.771 64.469C117.771 64.6161 117.859 64.6897 118.035 64.6897C120.817 62.8138 123.316 61.8391 125.534 61.7655C125.957 61.7655 126.344 61.8943 126.696 62.1517C127.893 63.1816 128.492 64.377 128.492 65.7379C128.492 67.0989 127.154 69.3977 124.478 72.6345C125.605 72.3402 127.136 71.5862 129.073 70.3724C131.044 69.1218 132.717 67.9448 134.09 66.8414L136.149 65.1862C136.466 65.4437 136.625 65.7563 136.625 66.1241C136.625 66.492 136.466 66.823 136.149 67.1172C130.34 72.7448 125.939 75.5586 122.947 75.5586C122.736 75.5586 122.419 75.5218 121.996 75.4483L122.102 75.2828C120.024 77.4161 117.947 79.2 115.87 80.6345C113.793 82.0322 112.085 82.731 110.747 82.731C107.438 82.731 105.783 81.554 105.783 79.2C105.783 78.023 106.153 76.6437 106.892 75.0621C107.597 73.4437 108.459 71.9172 109.48 70.4828C110.501 69.0115 111.522 67.6322 112.543 66.3448C113.599 65.0575 114.479 64.0276 115.184 63.2552C115.923 62.4828 116.293 62.1149 116.293 62.1517C118.792 59.1356 120.957 56.3586 122.788 53.8207C124.654 51.246 125.887 49.4253 126.485 48.3586C127.084 47.2552 127.682 46.3172 128.281 45.5448C128.879 44.7724 129.372 44.331 129.759 44.2207C130.182 44.0736 130.903 44 131.924 44ZM110.695 79.6414C112.138 79.6414 114.004 78.5747 116.293 76.4414C118.616 74.308 120.588 72.0828 122.207 69.7655C123.862 67.4483 124.689 65.9402 124.689 65.2414C124.689 65.131 124.637 65.0759 124.531 65.0759C122.7 65.0759 120.623 66.1057 118.299 68.1655C115.976 70.2253 114.057 72.377 112.543 74.6207C111.064 76.8644 110.325 78.4092 110.325 79.2552C110.325 79.5126 110.448 79.6414 110.695 79.6414Z" fill="#070B0E"/>
<path d="M128.203 79.1448C129.33 79.1448 130.721 78.3724 132.375 76.8276C134.03 75.2828 134.893 74.2161 134.963 73.6276C134.541 73.2598 134.083 72.5977 133.59 71.6414C133.132 70.6483 132.886 70.1517 132.851 70.1517C131.759 71.2184 130.791 72.4506 129.946 73.8483C128.608 76.2023 127.939 77.8207 127.939 78.7034C127.939 78.9977 128.027 79.1448 128.203 79.1448ZM139.61 65.6276C139.258 65.6276 138.519 66.1977 137.392 67.3379C136.301 68.4782 135.755 69.269 135.755 69.7103C135.755 69.8207 135.861 70.0414 136.072 70.3724C136.283 70.7034 136.442 70.869 136.547 70.869C137.146 70.869 137.815 70.1149 138.554 68.6069C139.329 67.0988 139.716 66.2345 139.716 66.0138C139.716 65.7563 139.681 65.6276 139.61 65.6276ZM139.716 72.7448C140.702 72.7448 142.233 72.1195 144.311 70.869C146.423 69.6184 148.271 68.3678 149.856 67.1172L152.232 65.1862C152.549 65.4437 152.707 65.7563 152.707 66.1241C152.707 66.492 152.549 66.823 152.232 67.1172C146.423 72.7448 142.022 75.5586 139.029 75.5586C138.818 75.5586 138.501 75.5218 138.079 75.4483C134.101 80.2667 130.685 82.6759 127.834 82.6759C125.933 82.3816 124.735 81.6828 124.243 80.5793C123.961 80.0276 123.82 79.3287 123.82 78.4828C123.82 76.0552 125.158 73.1678 127.834 69.8207C130.509 66.4368 133.872 63.954 137.921 62.3724C138.273 62.3724 138.537 62.4644 138.713 62.6483C138.889 62.7954 139.047 62.8874 139.188 62.9241C139.329 62.9241 139.505 62.8506 139.716 62.7034C139.962 62.5195 140.279 62.4276 140.667 62.4276C141.054 62.3908 141.459 62.6115 141.881 63.0897C142.445 63.5678 142.726 64.1563 142.726 64.8552C142.726 66.9149 141.723 69.5448 139.716 72.7448Z" fill="#070B0E"/>
<path d="M151.763 77.2138C151.763 77.9862 152.133 78.3724 152.872 78.3724C155.266 78.3724 161.428 74.6759 171.356 67.2828C171.743 66.9885 172.324 66.5471 173.099 65.9586C173.909 65.3701 174.384 65.0207 174.525 64.9103C174.842 65.1678 175 65.4805 175 65.8483C175 66.2161 174.842 66.5471 174.525 66.8414C171.919 69.5632 167.871 72.8552 162.378 76.7172C156.921 80.5793 153.225 82.5103 151.288 82.5103C148.894 82.5103 147.697 80.892 147.697 77.6552C147.521 77.7287 146.887 78.1149 145.796 78.8138C142.874 80.7632 140.99 81.7379 140.145 81.7379C139.758 81.7379 139.406 81.5724 139.089 81.2414C138.737 80.8736 138.561 80.4506 138.561 79.9724C138.561 79.4575 138.878 79.0345 139.511 78.7034C140.11 78.3724 141.254 77.8391 142.944 77.1034C144.634 76.331 146.324 75.3379 148.014 74.1241C148.049 74.0138 148.084 73.7747 148.119 73.4069C148.155 73.0391 148.225 72.708 148.331 72.4138C148.648 71.2368 149.211 69.7655 150.021 68C150.021 67.8897 149.95 67.8345 149.81 67.8345C148.894 67.8345 148.436 67.6874 148.436 67.3931C148.436 67.2092 148.648 66.9885 149.07 66.731C149.985 66.1793 150.866 65.3149 151.711 64.1379C152.52 63.292 153.788 62.8138 155.513 62.7034C156.076 62.7034 156.358 62.9057 156.358 63.3103C156.358 63.8253 155.9 64.6345 154.985 65.7379C153.858 67.7977 153.295 69.1586 153.295 69.8207C153.295 69.8943 153.33 69.931 153.401 69.931C153.964 69.931 155.689 69.0299 158.576 67.2276C161.463 65.4253 163.065 64.3402 163.382 63.9724C163.734 63.6046 163.998 63.4207 164.174 63.4207C164.385 63.4207 164.614 63.6046 164.86 63.9724C165.107 64.3034 165.23 64.5977 165.23 64.8552C165.23 65.0759 165.125 65.2782 164.913 65.4621C164.702 65.646 163.787 66.3448 162.167 67.5586C156.534 71.7149 153.154 74.2161 152.027 75.0621C151.992 75.2092 151.957 75.4115 151.922 75.669L151.816 76.2759C151.781 76.6437 151.763 76.9563 151.763 77.2138Z" fill="#070B0E"/>
</svg>
