<svg width="256" height="128" viewBox="0 0 256 128" fill="none" xmlns="http://www.w3.org/2000/svg">
<path d="M34.7852 57.5231H34.6684C48.5737 46.7303 68.0799 40 89.7141 40C111.348 40 130.863 46.7303 144.755 57.5231H128.917C115.972 49.5021 99.6316 44.7034 81.8511 44.7034C64.0705 44.7034 47.7303 49.5021 34.7852 57.5231Z" fill="#070B0E"/>
<path d="M226.292 82.5863C226.911 82.5863 227.767 82.7336 227.767 83.5694C227.767 84.4053 226.963 84.5655 226.31 84.5655C225.843 84.5655 224.835 84.414 224.835 83.5694C224.835 82.7249 225.7 82.5863 226.292 82.5863ZM226.219 87.4543C225.445 87.4543 224.567 87.2984 224.567 86.796C224.567 86.5058 224.822 86.3629 225.272 86.1767C225.799 86.2026 226.318 86.22 226.846 86.233C228.057 86.2763 228.36 86.3586 228.36 86.7397C228.36 87.2811 227.339 87.4543 226.219 87.4543ZM228.974 82.0103C228.769 81.998 228.564 82.0303 228.373 82.1051C228.182 82.1799 228.009 82.2953 227.867 82.4434C227.386 82.1409 226.82 82.0012 226.254 82.0449C225.181 82.0449 224.195 82.478 224.195 83.5564C224.2 83.7714 224.255 83.9822 224.357 84.1718C224.458 84.3614 224.603 84.5244 224.779 84.6478C224.558 84.7778 224.19 84.9986 224.19 85.3928C224.19 85.7869 224.42 85.8648 224.658 85.9948C224.091 86.194 223.927 86.4755 223.927 86.7873C223.927 87.8354 225.341 88 226.228 88C227.378 88 229 87.8224 229 86.6704C229 85.7479 228.135 85.6266 226.535 85.6136C225.017 85.592 224.852 85.5443 224.852 85.2542C224.852 85.0896 224.952 84.977 225.159 84.899C225.552 85.0604 225.977 85.1314 226.401 85.1069C227.923 85.1069 228.407 84.1758 228.407 83.6301C228.424 83.3353 228.34 83.0435 228.17 82.8029C228.411 82.6576 228.693 82.5924 228.974 82.6166V82.0103ZM218.477 86.4798H219.143V83.4741C219.359 83.2212 219.623 83.0142 219.92 82.8654C220.218 82.7166 220.542 82.6291 220.873 82.608C221.033 82.5849 221.195 82.5989 221.348 82.6489C221.502 82.6988 221.641 82.7833 221.757 82.8959C221.872 83.0085 221.96 83.1462 222.014 83.2983C222.068 83.4503 222.086 83.6128 222.067 83.773V86.4798H222.733V83.6387C222.733 82.1662 221.492 82.0449 220.955 82.0449C220.278 82.0632 219.632 82.3334 219.143 82.8029V82.1749H218.477V86.4798ZM216.15 81.261H216.916V80.4944H216.15V81.261ZM216.206 86.4798H216.872V82.1749H216.206V86.4798ZM210.67 83.8813C210.743 83.4868 210.961 83.1342 211.282 82.8935C211.602 82.6528 212.002 82.5416 212.4 82.582C212.802 82.5446 213.203 82.6563 213.527 82.8959C213.852 83.1355 214.077 83.4862 214.161 83.8813H210.67ZM214.234 85.1805C214.045 85.4602 213.785 85.685 213.481 85.8325C213.178 85.9799 212.841 86.0449 212.504 86.0207C212.052 86.0508 211.606 85.902 211.262 85.6064C210.919 85.3108 210.704 84.892 210.666 84.44H214.896C214.93 82.7336 213.728 82.0189 212.353 82.0189C212.047 82.0009 211.741 82.0465 211.453 82.1528C211.166 82.2592 210.904 82.4239 210.683 82.6367C210.463 82.8494 210.288 83.1057 210.171 83.3892C210.055 83.6727 209.998 83.9774 210.004 84.284C210 84.5988 210.062 84.9109 210.184 85.2007C210.307 85.4906 210.488 85.7519 210.716 85.9683C210.945 86.1847 211.215 86.3514 211.511 86.4581C211.807 86.5648 212.121 86.609 212.435 86.5881C213.901 86.5881 214.329 86.0294 214.77 85.5573L214.234 85.1805ZM203.984 80.4685V85.6656C203.984 85.7825 203.94 86.3412 203.932 86.4712H204.451L204.615 85.7999C204.881 86.0705 205.199 86.2836 205.55 86.4259C205.901 86.5682 206.278 86.6367 206.656 86.6271C206.963 86.6473 207.27 86.6041 207.559 86.5001C207.849 86.3961 208.113 86.2336 208.337 86.0227C208.56 85.8118 208.738 85.5571 208.859 85.2743C208.98 84.9916 209.041 84.6869 209.04 84.3793C209.04 83.3789 208.417 82.0579 206.574 82.0579C205.864 82.0458 205.176 82.3043 204.65 82.7812V80.5074L203.984 80.4685ZM204.65 83.4308C204.882 83.1587 205.17 82.9403 205.495 82.7907C205.82 82.6412 206.174 82.564 206.531 82.5646C207.422 82.5646 208.378 83.0281 208.378 84.3403C208.378 85.2282 207.686 86.0034 206.514 86.0034C205.798 85.9502 205.13 85.6229 204.65 85.0896V83.4308ZM200.472 84.5612H202.699V83.9506H200.472V84.5612ZM198.551 86.4538H199.217V80.4901H198.551V86.4538ZM196.306 86.4538H196.973V80.4901H196.306V86.4538ZM190.779 83.8553C190.851 83.4603 191.069 83.1071 191.39 82.8662C191.711 82.6253 192.11 82.5146 192.509 82.556C193.53 82.556 194.14 83.1363 194.274 83.8553H190.779ZM194.343 85.1546C194.151 85.4379 193.887 85.665 193.578 85.8127C193.27 85.9603 192.928 86.0232 192.587 85.9948C192.136 86.0236 191.691 85.8743 191.348 85.5788C191.005 85.2833 190.792 84.8652 190.753 84.414H194.983C195.013 82.7076 193.815 81.993 192.44 81.993C192.134 81.975 191.827 82.0206 191.54 82.1268C191.252 82.2331 190.99 82.3978 190.769 82.6105C190.548 82.8232 190.373 83.0794 190.256 83.3629C190.139 83.6464 190.081 83.9512 190.087 84.258C190.084 84.573 190.146 84.8852 190.269 85.175C190.392 85.4649 190.573 85.7262 190.802 85.9425C191.031 86.1588 191.301 86.3255 191.597 86.4321C191.893 86.5388 192.208 86.583 192.522 86.5621C193.988 86.5621 194.416 86.0034 194.858 85.5313L194.343 85.1546ZM183.582 86.4279H184.213L185.511 82.9371L186.809 86.4279H187.44L189.261 82.1229H188.56L187.146 85.6396L185.814 82.1229H185.187L183.854 85.631L182.423 82.1229H181.787L183.582 86.4279ZM176.606 86.4279H177.272V80.4901H176.597L176.606 86.4279ZM174.292 85.3408C173.629 85.7449 172.878 85.9785 172.103 86.0207C171.774 86.0207 171.018 85.9298 171.018 85.2498C171.018 84.4226 172.315 84.2407 174.292 84.0502V85.3408ZM174.958 83.3832C174.958 82.2788 173.842 81.993 172.86 81.993C171.364 81.993 170.892 82.608 170.646 82.9111L171.152 83.2576C171.364 83.0107 171.766 82.5343 172.912 82.5343C173.591 82.5343 174.292 82.7552 174.292 83.3442V83.5045C172.614 83.7037 170.399 83.76 170.399 85.2368C170.399 86.3499 171.441 86.5361 172.151 86.5361C172.92 86.5401 173.673 86.3139 174.313 85.8865C174.322 86.0607 174.35 86.2335 174.395 86.4019H175.062C175.016 86.1823 174.992 85.959 174.988 85.7349L174.958 83.3832ZM168.41 81.2177H169.175V80.4511H168.41V81.2177ZM168.47 86.4365H169.132V82.1315H168.47V86.4365ZM166.952 83.1753C166.726 82.7882 166.395 82.4728 165.998 82.2652C165.601 82.0576 165.154 81.9663 164.707 82.0016C163.375 82.0016 162.238 82.7899 162.238 84.271C162.238 85.5703 163.202 86.5708 164.746 86.5708C166.091 86.5708 166.714 85.9948 167.095 85.3365L166.515 85.016C166.352 85.3342 166.099 85.5974 165.787 85.7729C165.476 85.9485 165.12 86.0286 164.763 86.0034C164.531 86.0211 164.298 85.9916 164.077 85.9168C163.857 85.842 163.654 85.7234 163.48 85.5682C163.306 85.4129 163.166 85.2241 163.067 85.0131C162.968 84.8021 162.912 84.5733 162.904 84.3403C162.89 84.101 162.928 83.8615 163.014 83.6378C163.1 83.4142 163.233 83.2116 163.404 83.0435C163.575 82.8754 163.779 82.7457 164.004 82.6632C164.229 82.5806 164.468 82.547 164.707 82.5646C165.046 82.5464 165.383 82.6251 165.678 82.7916C165.974 82.958 166.216 83.2053 166.377 83.5045L166.952 83.1753ZM156.701 86.4798H157.372V83.4741C157.587 83.2202 157.851 83.0126 158.148 82.8637C158.446 82.7148 158.77 82.6278 159.102 82.608C159.261 82.5849 159.424 82.5989 159.577 82.6489C159.73 82.6988 159.87 82.7833 159.985 82.8959C160.101 83.0085 160.189 83.1462 160.243 83.2983C160.296 83.4503 160.314 83.6128 160.296 83.773V86.4798H160.962V83.6387C160.962 82.1662 159.72 82.0449 159.184 82.0449C158.508 82.0622 157.863 82.3326 157.376 82.8029V82.1749H156.701V86.4798ZM154.357 85.3928C153.695 85.7968 152.943 86.0305 152.169 86.0727C151.84 86.0727 151.083 85.9818 151.083 85.3018C151.083 84.4746 152.402 84.2927 154.357 84.1021V85.3928ZM155.028 83.4352C155.028 82.3308 153.907 82.0449 152.926 82.0449C151.429 82.0449 150.962 82.6599 150.715 82.9631L151.217 83.3096C151.429 83.0627 151.831 82.5863 152.978 82.5863C153.661 82.5863 154.357 82.8072 154.357 83.3962V83.5564C152.679 83.7557 150.465 83.812 150.465 85.2888C150.465 86.4019 151.507 86.5881 152.216 86.5881C152.985 86.5902 153.738 86.3642 154.379 85.9385C154.386 86.1129 154.413 86.2859 154.461 86.4538H155.123C155.079 86.2341 155.056 86.0109 155.054 85.7869L155.028 83.4352ZM144.907 86.4668H145.573V83.4612C145.788 83.2076 146.052 83.0002 146.35 82.8514C146.647 82.7026 146.971 82.6153 147.303 82.595C147.774 82.595 148.514 82.7379 148.497 83.76V86.4668H149.163V83.6387C149.163 82.1662 147.921 82.0449 147.389 82.0449C146.712 82.0632 146.066 82.3334 145.577 82.8029V82.1749H144.911L144.907 86.4668ZM142.58 81.248H143.341V80.4815H142.58V81.248ZM142.636 86.4668H143.294V82.1619H142.628L142.636 86.4668ZM138.795 86.4668H139.462V82.8202H141.226V82.2528H139.462V81.9713C139.462 81.339 139.6 80.8972 140.521 80.8972C140.833 80.9058 141.143 80.9538 141.442 81.0401V80.4468C141.076 80.3591 140.699 80.3212 140.322 80.3342C139.025 80.3342 138.795 81.2004 138.795 81.9237V82.2528H137.71V82.8202H138.795V86.4668ZM130.69 86.4668H131.356V83.8683C131.382 83.747 132.061 82.6513 133.008 82.6513C133.189 82.6536 133.368 82.6724 133.545 82.7076V82.0406C133.415 82.0168 133.283 82.0066 133.151 82.0103C132.795 82.0376 132.449 82.1438 132.138 82.3213C131.828 82.4989 131.561 82.7432 131.356 83.0367V82.1402H130.69V86.4668ZM129.047 82.1619H128.372V85.1719C128.155 85.4239 127.891 85.6303 127.594 85.779C127.297 85.9277 126.973 86.0158 126.642 86.0381C126.175 86.0381 125.431 85.8951 125.448 84.8774V82.1662H124.782V85.0073C124.782 86.4842 126.023 86.6054 126.56 86.6054C127.236 86.5851 127.882 86.3152 128.372 85.8475V86.4712H129.021L129.047 82.1619ZM121.024 86.0337C119.895 86.0337 119.207 85.3495 119.207 84.3014C119.23 83.8348 119.431 83.395 119.769 83.0729C120.106 82.7508 120.555 82.5711 121.021 82.5711C121.488 82.5711 121.936 82.7508 122.274 83.0729C122.612 83.395 122.813 83.8348 122.836 84.3014C122.836 85.3321 122.152 86.0337 121.024 86.0337ZM121.024 86.6011C122.49 86.6011 123.498 85.7609 123.498 84.2364C123.498 83.0107 122.537 82.0319 121.024 82.0319C119.51 82.0319 118.541 83.0107 118.541 84.2364C118.541 85.7609 119.557 86.6011 121.024 86.6011ZM112.78 87.8527C113.046 87.9377 113.323 87.9829 113.602 87.987C113.92 87.9925 114.232 87.9038 114.5 87.7319C114.768 87.5601 114.979 87.3128 115.107 87.0212L117.624 82.1619H116.91L115.15 85.6266L113.308 82.1619H112.585L114.795 86.3066C114.402 87.1295 114.073 87.3763 113.563 87.3763C113.299 87.3807 113.036 87.3352 112.789 87.2421L112.78 87.8527ZM105.622 82.5863C106.24 82.5863 107.097 82.7336 107.097 83.5694C107.097 84.4053 106.288 84.5655 105.639 84.5655C105.168 84.5655 104.164 84.414 104.164 83.5694C104.164 82.7249 105.029 82.5863 105.622 82.5863ZM105.548 87.4543C104.774 87.4543 103.896 87.2984 103.896 86.796C103.896 86.5058 104.151 86.3629 104.601 86.1767C105.129 86.2026 105.648 86.22 106.175 86.233C107.382 86.2763 107.689 86.3586 107.689 86.7397C107.689 87.2811 106.669 87.4543 105.527 87.4543H105.548ZM108.282 82.0103C108.077 81.9977 107.872 82.0299 107.681 82.1047C107.489 82.1795 107.317 82.295 107.175 82.4434C106.693 82.1409 106.128 82.0012 105.561 82.0449C104.489 82.0449 103.503 82.478 103.503 83.5564C103.508 83.7714 103.563 83.9822 103.665 84.1718C103.766 84.3614 103.911 84.5244 104.087 84.6478C103.866 84.7778 103.494 84.9986 103.494 85.3928C103.494 85.7869 103.728 85.8648 103.965 85.9948C103.394 86.194 103.234 86.4755 103.234 86.7873C103.234 87.8354 104.649 88 105.535 88C106.686 88 108.308 87.8224 108.308 86.6704C108.308 85.7479 107.443 85.6266 105.838 85.6136C104.324 85.592 104.16 85.5443 104.16 85.2542C104.16 85.0896 104.259 84.977 104.463 84.899C104.857 85.0599 105.283 85.1309 105.708 85.1069C107.231 85.1069 107.715 84.1758 107.715 83.6301C107.732 83.3353 107.648 83.0435 107.477 82.8029C107.719 82.6576 108.001 82.5924 108.282 82.6166V82.0103ZM97.7848 86.4798H98.4508V83.4741C98.6663 83.2208 98.9306 83.0135 99.2278 82.8647C99.5251 82.7159 99.8492 82.6286 100.181 82.608C100.34 82.5857 100.502 82.6002 100.655 82.6505C100.807 82.7007 100.947 82.7854 101.061 82.8979C101.176 83.0104 101.264 83.1478 101.317 83.2995C101.371 83.4512 101.389 83.6132 101.37 83.773V86.4798H102.036V83.6387C102.036 82.1662 100.795 82.0449 100.263 82.0449C99.5859 82.0632 98.9398 82.3334 98.4508 82.8029V82.1749H97.7848V86.4798ZM95.4579 81.261H96.2234V80.4944H95.4579V81.261ZM95.5141 86.4798H96.1802V82.1749H95.5141V86.4798ZM91.4744 86.4798H92.1405V83.8813C92.1665 83.76 92.8498 82.6643 93.7927 82.6643C93.9728 82.6666 94.1523 82.6854 94.329 82.7206V82.0536C94.1993 82.0296 94.0673 82.0194 93.9354 82.0233C93.579 82.0506 93.2331 82.1568 92.9227 82.3343C92.6123 82.5118 92.3451 82.7562 92.1405 83.0497V82.1532H91.4744V86.4798ZM89.8309 82.1749H89.1864V85.1849C88.9702 85.4373 88.7057 85.6439 88.4086 85.7926C88.1116 85.9414 87.7878 86.0292 87.4564 86.0511C87.2973 86.074 87.1352 86.06 86.9823 86.0103C86.8295 85.9606 86.6901 85.8765 86.5748 85.7644C86.4595 85.6523 86.3714 85.5152 86.3173 85.3637C86.2632 85.2122 86.2445 85.0502 86.2627 84.8904V82.1792H85.5966V85.0203C85.5966 86.4972 86.8422 86.6184 87.3742 86.6184C88.0509 86.5981 88.6963 86.3282 89.1864 85.8605V86.4842H89.8525L89.8309 82.1749ZM84.0396 83.2186C83.813 82.8308 83.4818 82.5149 83.0839 82.3073C82.686 82.0997 82.2377 82.0087 81.7905 82.0449C80.4584 82.0449 79.3252 82.8332 79.3252 84.3144C79.3252 85.6136 80.2854 86.6141 81.8338 86.6141C83.1745 86.6141 83.8017 86.0381 84.178 85.3798L83.6027 85.0593C83.44 85.3732 83.1901 85.6335 82.8832 85.8086C82.5763 85.9838 82.2254 86.0665 81.8727 86.0467C81.6405 86.0644 81.4072 86.0349 81.1867 85.9601C80.9662 85.8853 80.763 85.7667 80.5894 85.6115C80.4157 85.4562 80.2752 85.2674 80.1761 85.0564C80.077 84.8454 80.0215 84.6166 80.0129 84.3836C79.9987 84.1445 80.0357 83.9051 80.1214 83.6814C80.2072 83.4578 80.3397 83.2551 80.5101 83.0869C80.6805 82.9188 80.8848 82.789 81.1094 82.7064C81.3339 82.6238 81.5736 82.5902 81.8121 82.608C82.1514 82.59 82.4887 82.6687 82.785 82.8351C83.0813 83.0014 83.3244 83.2486 83.486 83.5478L84.0396 83.2186ZM74.1178 83.8942C74.1906 83.4998 74.409 83.1472 74.7295 82.9065C75.05 82.6658 75.4492 82.5546 75.8478 82.595C76.8685 82.595 77.4784 83.1753 77.6125 83.8942H74.1178ZM77.6817 85.1935C77.4896 85.4769 77.2258 85.704 76.9172 85.8516C76.6087 85.9993 76.2665 86.0621 75.9257 86.0337C75.4743 86.0626 75.0296 85.9133 74.6868 85.6178C74.3441 85.3223 74.1305 84.9042 74.0918 84.4529H78.3218C78.352 82.7465 77.154 82.0319 75.7786 82.0319C75.4726 82.014 75.1662 82.0595 74.8787 82.1658C74.5912 82.2721 74.3287 82.4367 74.1077 82.6495C73.8868 82.8622 73.7121 83.1183 73.5948 83.4019C73.4774 83.6854 73.4199 83.9902 73.4257 84.297C73.4227 84.612 73.4846 84.9242 73.6077 85.214C73.7307 85.5039 73.9122 85.7651 74.1408 85.9815C74.3695 86.1978 74.6402 86.3645 74.9362 86.4711C75.2322 86.5777 75.5469 86.622 75.8608 86.6011C77.327 86.6011 77.7552 86.0424 78.1963 85.5703L77.6817 85.1935ZM66.1855 85.2325C66.6959 85.8042 67.4182 86.6141 69.3774 86.6141C71.4102 86.6141 72.3791 85.7869 72.3791 84.7778C72.3791 82.0926 67.163 83.8206 67.163 82.0146C67.163 81.2567 68.028 80.9405 69.2131 80.9405C70.8437 80.9405 71.4189 81.7071 71.6654 81.9886L72.1931 81.5555C71.7606 80.9795 70.8091 80.3299 69.2304 80.3299C67.6517 80.3299 66.4234 80.8453 66.4234 82.1229C66.4234 84.5526 71.6395 82.9544 71.6395 84.7734C71.6395 85.7089 70.3809 85.9688 69.4769 85.9688C67.6863 85.9688 67.1068 85.2152 66.7608 84.7518L66.1855 85.2325Z" fill="#070B0E"/>
<path d="M228.805 65.9857C228.524 65.2062 227.681 62.9541 222.802 62.9541C221.937 62.9541 217.517 62.9541 217.517 66.3539C217.517 68.0862 218.983 69.2296 221.604 69.5891L224.316 69.9659C225.938 70.1651 226.781 70.6502 226.781 71.3864C226.781 72.3696 225.285 72.9629 223.473 72.9629C220.48 72.9629 219.64 71.7589 219.234 70.9317L217.097 71.603C217.361 72.4692 218.546 74.8642 223.412 74.8642C226.44 74.8642 228.991 73.8681 228.991 71.1829C228.991 69.2729 227.499 68.2898 224.956 67.9L222.274 67.4972C220.012 67.2157 219.731 66.7003 219.731 66.1979C219.731 65.1499 221.245 64.7774 222.759 64.7774C225.453 64.7774 226.375 65.6436 226.734 66.6657L228.805 65.9857ZM205.143 74.5697H215.523V72.6641H207.374V69.6714H214.225V67.7658H207.374V65.1239H215.324V63.2399H205.143V74.5697ZM193.534 67.7008V65.0632H198.292C199.741 65.0632 200.381 65.4227 200.381 66.3885C200.381 67.3543 199.741 67.6878 198.292 67.6878L193.534 67.7008ZM193.534 72.729V69.5458H198.352C199.849 69.5458 200.818 69.9182 200.818 71.1049C200.818 72.4475 199.758 72.729 198.352 72.729H193.534ZM191.302 74.5697H198.569C201.332 74.5697 203.032 73.4176 203.032 71.2782C203.043 70.6945 202.886 70.1201 202.579 69.6238C202.272 69.1275 201.829 68.7304 201.302 68.4804C201.723 68.2563 202.071 67.9141 202.301 67.4957C202.531 67.0773 202.635 66.6008 202.6 66.1243C202.6 63.9588 200.822 63.2226 198.153 63.2226H191.302V74.5697ZM177.462 74.5697H179.676V70.1045H183.184L186.476 74.5697H189.2L185.74 69.9529C186.169 69.9469 186.592 69.855 186.985 69.6826C187.378 69.5103 187.732 69.261 188.027 68.9494C188.322 68.6378 188.552 68.2703 188.703 67.8684C188.854 67.4665 188.923 67.0384 188.906 66.6094C188.906 63.8289 186.973 63.2226 184.291 63.2226H177.484L177.462 74.5697ZM179.676 68.2638V65.0632H183.95C185.762 65.0632 186.679 65.3318 186.679 66.657C186.679 67.9823 185.762 68.2638 183.95 68.2638H179.676ZM162.03 68.9828C162.03 71.3388 163.418 74.8512 168.786 74.8512C174.153 74.8512 175.533 71.3388 175.533 68.9828C175.533 65.8731 173.773 62.9411 168.786 62.9411C163.799 62.9411 162.03 65.8731 162.03 68.9828ZM168.812 72.9499C166.688 72.9499 164.27 72.0837 164.27 68.8572C164.27 66.1243 166.221 64.8467 168.812 64.8467C171.402 64.8467 173.344 66.1243 173.344 68.8572C173.344 72.0707 170.927 72.9499 168.812 72.9499ZM150.681 74.5697H152.895V69.6714H159.958V67.7658H152.891V65.1239H161.109V63.2399H150.677L150.681 74.5697Z" fill="#070B0E"/>
<path d="M136.529 74.5697H138.739V70.1045H142.251L145.538 74.5697H148.267L144.807 69.9486C145.236 69.9431 145.659 69.8517 146.052 69.6799C146.444 69.508 146.799 69.2591 147.094 68.9479C147.389 68.6366 147.619 68.2694 147.77 67.8677C147.921 67.4661 147.99 67.0382 147.973 66.6094C147.973 63.8289 146.04 63.2226 143.358 63.2226H136.529V74.5697ZM138.739 68.2638V65.0632H143.012C144.82 65.0632 145.742 65.3274 145.742 66.657C145.742 67.9866 144.82 68.2638 143.012 68.2638H138.739ZM123.796 74.5697H134.15V72.6641H125.993V69.6714H132.835V67.7614H125.993V65.1239H133.943V63.2399H123.779L123.796 74.5697ZM109.644 74.5697H115.18C118.922 74.5697 121.543 72.6987 121.543 68.8268C121.543 64.7341 118.671 63.2226 115.085 63.2226H109.644V74.5697ZM111.859 72.6641V65.1239H114.103C117.814 65.1239 119.341 66.0767 119.341 68.8572C119.341 71.512 117.879 72.6641 114.103 72.6641H111.859ZM94.9475 74.5697H97.0668V66.0767L104.96 74.5697H106.984V63.2399H104.865V71.4341L97.2874 63.2399H94.9475V74.5697ZM79.8918 74.5697H82.249L83.447 71.9711H89.9823L91.1674 74.5697H93.5072L88.0014 63.2399H85.4755L79.8918 74.5697ZM84.3683 70.0612L86.7384 65.0026L89.1086 70.0612H84.3683ZM76.2976 74.5697H79.1349L74.0399 68.7012L78.7975 63.2226H75.9905L72.7164 67.1204L69.425 63.2226H66.605L71.3627 68.7012L66.2331 74.5697H69.1179L72.7337 70.295L76.2976 74.5697ZM54.7888 74.5697H65.1432V72.6641H57.0033V69.6714H63.8456V67.7614H57.0033V65.1239H64.9572V63.2399H54.7888V74.5697ZM42.0557 74.5697H52.4879V72.6034H44.2702V63.2399H42.0557V74.5697ZM27 74.5697H29.3572L30.5552 71.9711H37.0905L38.2756 74.5697H40.6111L35.1096 63.2399H32.5707L27 74.5697ZM31.4765 70.0612L33.8683 65.0026L36.2384 70.0612H31.4765Z" fill="#070B0E"/>
</svg>
