<svg width="256" height="128" viewBox="0 0 256 128" fill="none" xmlns="http://www.w3.org/2000/svg">
<path fill-rule="evenodd" clip-rule="evenodd" d="M20.3515 53.1822C19.8331 51.5139 20.5972 49.6606 22.2403 48.8454L23.9443 48C15.6387 48.309 9 55.1552 9 63.5554C9 72.1525 15.9533 79.1217 24.5307 79.1217C25.3526 79.1217 26.1597 79.0577 26.9472 78.9345L25.1644 73.9092C25.153 73.8835 25.1436 73.857 25.1362 73.8296C24.9882 73.276 25.7637 72.5867 26.8684 72.29C27.9731 71.9934 28.9886 72.2016 29.1366 72.7552C29.144 72.7826 29.149 72.8103 29.1519 72.8384L30.1151 78.0851C35.9333 75.8371 40.0613 70.1795 40.0613 63.5554C40.0613 57.6251 36.7528 52.4693 31.8846 49.8414C31.6555 51.5843 30.5773 53.1937 28.8675 54.0419L27.249 54.8449C25.1153 55.9035 24.1618 58.3622 24.968 60.4894C25.0152 60.6465 25.2345 60.658 25.3094 60.5006C25.8978 59.0953 26.9828 58.0156 28.2825 57.3707L30.0728 56.4826C31.4217 55.8134 32.5682 54.6729 33.2058 53.2435C33.268 53.1224 33.4756 53.1096 33.5472 53.2546C34.6046 55.8289 33.8301 58.6501 31.672 59.7208C30.7645 60.171 30.121 61.0317 30.1224 62.0239C30.1221 62.6435 30.2893 63.1716 30.5651 63.5977C28.8723 63.4573 26.8188 63.6526 24.6798 64.227C22.3134 64.8626 20.2691 65.8476 18.8403 66.9443C17.2357 66.1184 15.8756 64.8061 15.0121 63.0819L14.9644 62.9853C13.2697 59.5536 14.6195 55.4241 17.8846 53.5035C18.0198 53.4064 18.1888 53.5633 18.1385 53.7085C17.5321 55.634 17.5701 57.7514 18.4149 59.709C18.4865 59.854 18.6939 59.8413 18.7688 59.6838C20.2128 55.8686 23.0011 52.9207 26.4344 51.2174L28.0775 50.4022C28.7877 50.0499 29.4418 49.567 29.9951 48.98C28.9318 48.5793 27.8132 48.2922 26.6537 48.1334C26.3312 48.9455 25.7149 49.649 24.8614 50.0724L23.0221 50.9849C22.0657 51.4594 21.2524 52.2239 20.7659 53.2174C20.6665 53.3869 20.4107 53.3636 20.3515 53.1822ZM25.2159 66.2318C20.2448 67.5669 16.6949 70.4443 17.2869 72.6587L18.3588 76.6683C17.7668 74.4538 21.3167 71.5764 26.2878 70.2414C31.2589 68.9063 35.7686 69.6192 36.3606 71.8337L35.2887 67.824C34.6967 65.6096 30.187 64.8968 25.2159 66.2318Z" fill="#070B0E"/>
<path d="M63.6788 74.3358C66.3191 74.3358 68.7108 73.2155 69.6737 71.4415V74.0869H73.4942V62.4473H63.1197V65.8707H69.5805C69.3631 68.7028 67.1577 70.6635 63.8652 70.6635C60.0447 70.6635 57.2802 67.9559 57.2802 63.1943C57.2802 58.4326 60.0447 55.6939 63.9273 55.6939C66.8471 55.6939 69.0214 57.4367 69.5494 60.1755L73.7116 59.304C72.873 54.7914 69.1767 52.0527 63.9584 52.0527C58.2742 52.0527 53.0248 55.7562 53.0248 63.1943C53.0248 70.6324 58.1499 74.3358 63.6788 74.3358ZM76.2573 74.0869H80.171V52.0527H76.2573V74.0869ZM90.6711 74.3358C95.4235 74.3358 98.8402 70.9125 98.8402 66.2442C98.8402 61.5759 95.4235 58.1525 90.6711 58.1525C85.9188 58.1525 82.502 61.5759 82.502 66.2442C82.502 70.9125 85.9188 74.3358 90.6711 74.3358ZM90.6711 70.9436C88.1241 70.9436 86.4468 69.0451 86.4468 66.2442C86.4468 63.4432 88.1241 61.5448 90.6711 61.5448C93.1871 61.5448 94.8955 63.4432 94.8955 66.2442C94.8955 69.0451 93.1871 70.9436 90.6711 70.9436ZM109.549 74.3358C114.239 74.3358 117.003 71.0369 117.003 66.2442C117.003 61.4514 114.239 58.1525 109.611 58.1525C107.654 58.1525 105.977 58.9617 105.076 60.1443V52.0527H101.162V74.0869H105.076V72.2818C105.852 73.5267 107.623 74.3358 109.549 74.3358ZM108.99 70.9436C106.474 70.9436 104.827 69.0763 104.827 66.2442C104.827 63.4121 106.474 61.5448 108.99 61.5448C111.474 61.5448 113.121 63.4121 113.121 66.2442C113.121 69.0763 111.474 70.9436 108.99 70.9436ZM125.684 58.1525C122.361 58.1525 119.596 60.1443 119.099 63.2565L122.578 63.8789C122.764 62.1984 123.976 61.1402 125.684 61.1402C127.579 61.1402 128.79 62.2295 128.79 64.0034V64.159L125.87 64.4391C121.211 64.9371 118.882 66.5865 118.882 69.6676C118.882 72.3441 121.025 74.3358 124.1 74.3358C126.026 74.3358 127.921 73.3399 128.79 71.815V74.0869H132.58V64.5325C132.58 60.3622 129.784 58.1525 125.684 58.1525ZM124.97 71.4415C123.541 71.4415 122.671 70.6324 122.671 69.5431C122.671 68.4227 123.727 67.5513 125.808 67.3023L128.79 66.96V67.3023C128.79 69.6053 127.392 71.4415 124.97 71.4415ZM135.47 74.0869H139.384V52.0527H135.47V74.0869ZM167.317 74.0869L161.539 64.3458C163.683 63.2876 164.956 61.2025 164.956 58.7439C164.956 54.8225 162.192 52.3017 157.936 52.3017H149.55L149.581 74.0869H153.805V65.1549H157.222L162.409 74.0869H167.317ZM153.805 55.9429H157.284C159.458 55.9429 160.701 57.001 160.701 58.7439C160.701 60.4867 159.458 61.5137 157.284 61.5137H153.805V55.9429ZM182.798 65.7151C182.798 62.0739 180.22 58.1525 174.939 58.1525C169.752 58.1525 167.205 62.1672 167.205 66.2442C167.205 70.3211 169.969 74.3358 175.157 74.3358C178.822 74.3358 181.555 72.593 182.425 69.6365L178.76 68.6406C178.356 70.1655 177.051 71.0369 175.219 71.0369C172.982 71.0369 171.46 69.6365 171.119 67.2712H182.736C182.767 66.96 182.798 66.2753 182.798 65.7151ZM171.212 64.408C171.647 62.2917 173.013 61.1402 174.939 61.1402C177.207 61.1402 178.418 62.5407 178.604 64.408H171.212ZM186.45 74.0869H190.364V61.7004H194.091V58.4015H190.364V57.1878C190.364 55.725 191.202 54.7914 192.507 54.7914C193.004 54.7914 193.532 54.8848 194.06 55.1026L194.34 51.866C193.594 51.6481 192.787 51.5236 191.979 51.5236C188.811 51.5236 186.45 53.5154 186.45 57.1878V58.4015H183.934V61.7004H186.45V74.0869ZM211.202 58.4015H207.288V65.2794C207.288 68.7962 205.921 70.8502 203.499 70.8502C201.666 70.8502 200.517 69.5742 200.517 67.738V58.4015H196.603V68.6717C196.603 72.0951 198.933 74.3358 202.318 74.3358C204.524 74.3358 206.294 73.2466 207.288 71.7216V74.0869H211.202V58.4015ZM225.172 58.4015V59.9887C224.302 58.8995 222.687 58.1525 220.761 58.1525C216.258 58.1525 213.555 61.2647 213.555 65.9019C213.555 70.5079 216.258 73.62 220.855 73.62C222.718 73.62 224.427 72.9042 225.203 71.7839V73.4956C225.203 75.5185 223.65 76.8567 221.289 76.8567C219.457 76.8567 217.966 75.9853 217.78 74.5226L214.145 75.1139C214.673 78.0393 217.624 80 221.289 80C225.949 80 229.055 77.2302 229.055 73.091V58.4015H225.172ZM221.414 70.2278C219.022 70.2278 217.438 68.5161 217.438 65.9019C217.438 63.2565 219.022 61.5448 221.414 61.5448C223.836 61.5448 225.421 63.2565 225.421 65.9019C225.421 68.5161 223.836 70.2278 221.414 70.2278ZM247 65.7151C247 62.0739 244.422 58.1525 239.141 58.1525C233.954 58.1525 231.407 62.1672 231.407 66.2442C231.407 70.3211 234.172 74.3358 239.359 74.3358C243.024 74.3358 245.758 72.593 246.627 69.6365L242.962 68.6406C242.558 70.1655 241.254 71.0369 239.421 71.0369C237.185 71.0369 235.663 69.6365 235.321 67.2712H246.938C246.969 66.96 247 66.2753 247 65.7151ZM235.414 64.408C235.849 62.2917 237.216 61.1402 239.141 61.1402C241.409 61.1402 242.62 62.5407 242.807 64.408H235.414Z" fill="#070B0E"/>
</svg>
