<svg width="256" height="128" viewBox="0 0 256 128" fill="none" xmlns="http://www.w3.org/2000/svg">
<path d="M196.869 50.0003L202.183 61.7648L207.447 50.0003H212.5L200.11 78H194.89L199.589 67.645L191.839 50.0003H196.869Z" fill="#070B0E"/>
<path fill-rule="evenodd" clip-rule="evenodd" d="M55.1073 50.0003C58.1856 50.0004 61.1375 51.2304 63.3142 53.4183C65.4909 55.6061 66.7146 58.5736 66.7146 61.6678C66.7144 64.7617 65.4909 67.7295 63.3142 69.9173C61.1376 72.1048 58.1854 73.3338 55.1073 73.3338H43.5V61.6678C43.5 58.5739 44.7226 55.6061 46.899 53.4183C49.0757 51.2304 52.0289 50.0003 55.1073 50.0003ZM49.4059 59.8357C49.0459 59.9077 48.7149 60.0862 48.4553 60.3471C48.1956 60.6081 48.0182 60.9407 47.9465 61.3027C47.8749 61.6647 47.9111 62.0404 48.0515 62.3814C48.1921 62.7225 48.4308 63.0144 48.7362 63.2195C49.0415 63.4244 49.4003 63.5339 49.7674 63.534C50.2599 63.534 50.7326 63.3371 51.0809 62.9871C51.429 62.6372 51.625 62.1626 51.6251 61.6678C51.6251 61.2986 51.5155 60.937 51.3114 60.6301C51.1073 60.3233 50.8173 60.0836 50.478 59.9424C50.139 59.8014 49.7659 59.7639 49.4059 59.8357ZM54.7445 59.8357C54.3843 59.9078 54.0535 60.0861 53.7938 60.3471C53.5341 60.6081 53.3567 60.9407 53.285 61.3027C53.2134 61.6648 53.2509 62.0404 53.3914 62.3814C53.532 62.7224 53.7695 63.0144 54.0748 63.2195C54.3802 63.4246 54.74 63.534 55.1073 63.534C55.5998 63.5339 56.0725 63.3371 56.4208 62.9871C56.7688 62.6372 56.9635 62.1625 56.9636 61.6678C56.9636 61.2986 56.8554 60.937 56.6513 60.6301C56.4472 60.3231 56.1573 60.0837 55.8179 59.9424C55.4786 59.8011 55.1047 59.7637 54.7445 59.8357ZM60.0844 59.8357C59.7243 59.9077 59.3934 60.0862 59.1337 60.3471C58.874 60.6081 58.6966 60.9407 58.6249 61.3027C58.5533 61.6647 58.5895 62.0404 58.73 62.3814C58.8705 62.7225 59.1093 63.0144 59.4147 63.2195C59.7199 63.4244 60.0788 63.5338 60.4458 63.534C60.9383 63.534 61.4111 63.3371 61.7593 62.9871C62.1075 62.6372 62.3034 62.1626 62.3035 61.6678C62.3035 61.2987 62.1951 60.937 61.9912 60.6301C61.7871 60.3231 61.4958 60.0837 61.1565 59.9424C60.8174 59.8014 60.4443 59.7639 60.0844 59.8357Z" fill="#070B0E"/>
<path fill-rule="evenodd" clip-rule="evenodd" d="M120.804 73.3338H116.154V71.0233C114.426 72.3155 112.373 73.0998 110.226 73.2887C108.08 73.4775 105.923 73.0643 103.997 72.0938C102.071 71.1232 100.451 69.6337 99.32 67.7927C98.1886 65.9517 97.5893 63.8309 97.5892 61.6678C97.5892 59.5045 98.1885 57.3826 99.32 55.5415C100.451 53.7005 102.071 52.2123 103.997 51.2417C105.923 50.2711 108.079 49.8566 110.226 50.0454C112.373 50.2343 114.426 51.0187 116.154 52.3108V50.0003H120.804V73.3338ZM109.18 54.6678C107.567 54.6666 106.003 55.2262 104.755 56.2524C103.507 57.2788 102.652 58.7083 102.336 60.2965C102.02 61.8845 102.262 63.5339 103.022 64.9626C103.781 66.3913 105.011 67.5109 106.501 68.1318C107.992 68.7527 109.65 68.8359 111.195 68.3669C112.739 67.8978 114.073 66.9059 114.97 65.5601C115.867 64.2141 116.272 62.5974 116.115 60.9855C115.957 59.3738 115.25 57.8658 114.109 56.72C113.471 56.0578 112.704 55.5351 111.856 55.1819C111.009 54.8288 110.098 54.6538 109.18 54.6678Z" fill="#070B0E"/>
<path d="M135.087 50.0454C137.234 49.8552 139.391 50.2687 141.318 51.239C143.244 52.2093 144.863 53.6995 145.996 55.5415C147.129 57.3835 147.731 59.5052 147.732 61.6705V73.3338H143.089V61.6705C143.089 59.8146 142.355 58.035 141.049 56.7227C139.743 55.4105 137.972 54.6734 136.125 54.6733C134.278 54.6733 132.506 55.4104 131.2 56.7227C129.894 58.035 129.161 59.8148 129.161 61.6705V73.3338H124.518V50.0072H129.161V52.3163C130.888 51.0221 132.941 50.2358 135.087 50.0454Z" fill="#070B0E"/>
<path fill-rule="evenodd" clip-rule="evenodd" d="M173.732 73.3338H169.082V71.0233C167.354 72.3155 165.302 73.0999 163.155 73.2887C161.008 73.4775 158.851 73.0643 156.925 72.0938C155 71.1232 153.38 69.6337 152.248 67.7927C151.117 65.9517 150.518 63.8309 150.518 61.6678C150.518 59.5045 151.117 57.3826 152.248 55.5415C153.38 53.7005 155 52.2123 156.925 51.2417C158.851 50.2711 161.008 49.8567 163.155 50.0454C165.302 50.2343 167.354 51.0187 169.082 52.3108V50.0003H173.732V73.3338ZM162.11 54.6678C160.496 54.6664 158.932 55.2261 157.684 56.2524C156.436 57.2788 155.58 58.7083 155.264 60.2965C154.948 61.8845 155.191 63.5339 155.95 64.9626C156.71 66.3913 157.94 67.5109 159.43 68.1318C160.92 68.7527 162.579 68.8359 164.123 68.3669C165.667 67.8979 167.001 66.9059 167.899 65.5601C168.796 64.2141 169.201 62.5974 169.044 60.9855C168.887 59.3737 168.178 57.8659 167.038 56.72C166.4 56.0578 165.632 55.5351 164.785 55.1819C163.937 54.8289 163.027 54.6539 162.11 54.6678Z" fill="#070B0E"/>
<path d="M182.089 50.0017V52.3122C184.084 50.7727 186.539 49.9578 189.054 50.0017V54.6692C187.206 54.6692 185.434 55.406 184.128 56.7186C182.822 58.0312 182.089 59.8116 182.089 61.6678V73.3338H177.446V50.0017H182.089Z" fill="#070B0E"/>
<path d="M81.3117 50.889C83.4335 50.0061 85.7685 49.7742 88.021 50.2245C90.2736 50.675 92.3427 51.7877 93.9665 53.4196C94.6328 54.1007 95.2246 54.8512 95.7315 55.659L91.7378 58.0625C91.4315 57.5813 91.0733 57.1347 90.6698 56.7323C89.6958 55.7524 88.4534 55.0849 87.1017 54.8141C85.75 54.5434 84.3488 54.6811 83.0753 55.2106C81.8018 55.7401 80.7137 56.6379 79.9477 57.7891C79.1818 58.9404 78.772 60.2939 78.772 61.6787C78.772 63.0635 79.1818 64.417 79.9477 65.5683C80.7137 66.7196 81.8017 67.6172 83.0753 68.1468C84.3488 68.6763 85.75 68.814 87.1017 68.5433C88.4534 68.2725 89.6958 67.605 90.6698 66.6251C91.0733 66.2227 91.4315 65.7761 91.7378 65.2949L95.7315 67.6984C95.2283 68.5018 94.6362 69.2463 93.9665 69.9159C92.3427 71.5476 90.2734 72.6592 88.021 73.1096C85.7686 73.5599 83.4335 73.3294 81.3117 72.4465C79.1898 71.5637 77.3761 70.068 76.1 68.1495C74.824 66.2311 74.1428 63.9751 74.1427 61.6678C74.1427 59.3602 74.8239 57.1033 76.1 55.1846C77.376 53.2663 79.19 51.7718 81.3117 50.889Z" fill="#070B0E"/>
</svg>
