<svg width="256" height="128" viewBox="0 0 256 128" fill="none" xmlns="http://www.w3.org/2000/svg">
<path fill-rule="evenodd" clip-rule="evenodd" d="M77.4098 51.7803L83.4332 51.7798C83.7748 51.7764 83.7324 51.7725 83.7324 52.2133L83.7334 54.3132C83.7365 54.5711 83.739 54.6163 83.575 54.6208C83.5563 54.6202 82.9826 54.6205 82.3758 54.6209L80.8309 54.6213C80.4873 54.6169 80.5286 54.6128 80.5286 55.0513L80.5275 80.9435C80.5284 81.1947 80.5636 81.1592 80.946 81.1592C80.946 81.1592 83.5425 81.1631 83.605 81.1579C83.7574 81.1721 83.7324 81.2434 83.7324 81.5896L83.7333 83.6848C83.7375 84.0413 83.7414 83.9984 83.3188 83.9984H77.4098C76.9449 83.9971 76.9962 84.0502 76.9962 83.5654V52.2133C76.9962 51.7284 76.9449 51.7803 77.4098 51.7803ZM68.738 52.2133V83.5654C68.738 84.0502 68.7893 83.9971 68.3244 83.9984H62.4154C61.9505 83.9984 62.0018 84.0502 62.0018 83.5654V81.5896C62.0018 81.2434 61.9768 81.1721 62.1292 81.1579C62.1917 81.1631 64.7882 81.1592 64.7882 81.1592C65.2131 81.1592 65.2094 81.2031 65.2061 80.8487L65.2056 55.0513C65.2056 54.6128 65.2469 54.6169 64.9033 54.6213L63.3584 54.6209C62.7517 54.6205 62.1779 54.6202 62.1592 54.6208C61.9718 54.6156 62.0018 54.5573 62.0018 54.1891V52.2133C62.0018 51.7725 61.9594 51.7764 62.301 51.7798L68.3244 51.7803C68.7893 51.7803 68.738 51.7284 68.738 52.2133ZM74.8703 52.094L74.8694 83.5654C74.8694 84.0502 74.9207 83.9971 74.4558 83.9984H71.1621C70.6972 83.9984 70.7485 84.0502 70.7485 83.5654V52.2133C70.7485 51.7725 70.7061 51.7764 71.0477 51.7798L74.4558 51.7803C74.8784 51.7803 74.8745 51.7375 74.8703 52.094ZM141.761 52.7831C144.568 52.7831 145.989 53.0506 147.298 53.7785C149.431 55.0035 150.479 57.1847 150.479 60.3235C150.479 63.8445 149.245 66.027 146.288 67.6342L151.864 77.6244C151.977 77.8162 152.052 78.0458 152.052 78.1985C152.052 78.3889 151.901 78.5415 151.452 78.6563L148.122 79.6139C147.786 79.7287 147.786 79.7287 147.673 79.7287C147.486 79.7287 147.374 79.6139 147.149 79.1925L141.873 68.2838H139.89V78.2363C139.89 78.9251 139.778 79.0399 139.104 79.0399H135.662C134.952 79.0399 134.876 78.9629 134.876 78.1215V53.5868C134.876 52.8601 134.952 52.7831 135.662 52.7831H141.761ZM184.907 52.1322C187.376 52.1322 189.809 53.1654 191.231 54.8496C193.102 57.0308 194 60.5909 194 65.6056C193.999 74.9436 190.818 79.6909 184.607 79.6909C178.507 79.6909 175.476 75.0597 175.476 65.7961C175.476 60.2074 176.487 56.8012 178.77 54.5052C180.379 52.9358 182.436 52.1322 184.907 52.1322ZM106.849 52.7831C107.522 52.7831 107.634 52.8979 107.634 53.5868V55.768C107.634 56.4568 107.522 56.5716 106.849 56.5716H104.829V75.2502H106.849C107.522 75.2502 107.634 75.365 107.634 76.0538V78.235C107.634 78.9251 107.522 79.0399 106.849 79.0399H97.6814C96.971 79.0399 96.8958 78.9629 96.8958 78.2363V76.0551C96.8958 75.3663 97.008 75.2515 97.6814 75.2515H99.7016V56.5716H97.6814C97.008 56.5716 96.8958 56.4568 96.8958 55.768V53.5868C96.8958 52.8601 96.971 52.7831 97.6814 52.7831H106.849ZM120.582 52.7831C123.575 52.7831 125.222 53.0897 126.456 53.8555C128.215 54.9657 129.3 57.2617 129.3 59.9791C129.3 65.1451 125.932 68.5526 120.768 68.5526H118.86V78.2363C118.86 78.9251 118.748 79.0399 118.075 79.0399H114.52C113.81 79.0399 113.735 78.9629 113.735 78.2363V53.5868C113.735 52.8601 113.81 52.7831 114.52 52.7831H120.582ZM170.686 52.7831C171.247 52.7831 171.435 52.898 171.435 53.2045C171.435 53.318 171.398 53.5098 171.36 53.7016L170.611 56.3041C170.462 56.8012 170.311 56.9551 169.788 56.9551H162.529V63.2326H168.778C169.452 63.2326 169.564 63.3474 169.564 64.0362V66.601C169.564 67.2898 169.452 67.4046 168.778 67.4046H162.529V74.8679H170.386C171.06 74.8679 171.172 74.9827 171.172 75.6715V78.2363C171.172 78.9629 171.097 79.0399 170.386 79.0399H158.188C157.477 79.0399 157.402 78.9629 157.402 78.2363V53.5868C157.402 52.8601 157.477 52.7831 158.188 52.7831H170.686ZM184.682 56.265C182.213 56.265 180.865 59.6712 180.865 65.9487C180.865 72.3788 182.138 75.5554 184.719 75.5554C187.3 75.5554 188.61 72.3788 188.61 66.0244C188.61 59.3281 187.376 56.265 184.682 56.265ZM120.319 56.6864H118.86V64.2267H119.909C123.202 64.2267 124.361 63.1935 124.361 60.2843C124.361 57.5669 123.349 56.6864 120.319 56.6864ZM141.349 56.6864H139.89V64.2267H140.938C144.231 64.2267 145.391 63.1935 145.391 60.2843C145.391 57.5669 144.38 56.6864 141.349 56.6864ZM71.1621 44.0016H74.4558C74.8784 44.0016 74.8745 43.9588 74.8703 44.3153L74.8694 47.9052C74.8694 48.3901 74.9207 48.3369 74.4558 48.3382H71.1621C70.6972 48.3382 70.7485 48.3901 70.7485 47.9052V44.4346C70.7485 43.9498 70.6972 44.0029 71.1621 44.0016Z" fill="#070B0E"/>
</svg>
