<svg width="256" height="128" viewBox="0 0 256 128" fill="none" xmlns="http://www.w3.org/2000/svg">
<path d="M53.1709 64.1666C52.996 58.9464 51.4376 58.9147 47.8595 58.9147H46.0784V71.9572H49.7042V72.7981H38V71.9572H41.6258V45.3011H38V44.4601H58.4665L58.9435 52.4887H58.2597C58.0914 50.213 57.1095 48.0733 55.4927 46.4593C54.1251 45.2693 52.837 45.3011 49.9109 45.3011H46.0784V57.9944H47.78C50.9605 57.9944 52.1691 57.9151 52.7257 56.1856C53.0019 54.9998 53.1353 53.7854 53.1232 52.568H53.9025V64.119L53.1709 64.1666Z" fill="#070B0E"/>
<path d="M59.6909 56.265H66.2109V71.9572H68.8189V72.7981H59.6432V71.9572H62.4262V57.1059H59.6909V56.265ZM64.1595 45.1583C64.4713 45.1562 64.7803 45.2159 65.0688 45.3339C65.3572 45.452 65.6193 45.626 65.8397 45.846C66.0602 46.066 66.2346 46.3274 66.3529 46.6152C66.4713 46.903 66.5311 47.2113 66.529 47.5224C66.529 48.1536 66.2777 48.759 65.8303 49.2053C65.383 49.6517 64.7763 49.9024 64.1436 49.9024C63.511 49.9024 62.9043 49.6517 62.4569 49.2053C62.0096 48.759 61.7583 48.1536 61.7583 47.5224C61.7474 47.2034 61.8018 46.8855 61.9182 46.5881C62.0346 46.2908 62.2106 46.0202 62.4353 45.793C62.6601 45.5658 62.9289 45.3867 63.2253 45.2667C63.5218 45.1466 63.8397 45.0881 64.1595 45.0948V45.1583Z" fill="#070B0E"/>
<path d="M80.0938 57.1059H75.7843V69.0694C75.7843 70.307 75.7843 72.0048 77.7562 72.0048C78.0653 72.0132 78.373 71.9608 78.6618 71.8505C78.9506 71.7402 79.2148 71.5743 79.4393 71.3621C79.6637 71.1499 79.8441 70.8957 79.9701 70.6139C80.096 70.3321 80.1651 70.0284 80.1733 69.7199H81.0639C80.9402 70.7882 80.3969 71.7639 79.5533 72.4331C78.7097 73.1024 77.6345 73.4105 76.5635 73.29C75.7083 73.3947 74.8418 73.227 74.0879 72.811C73.3339 72.3949 72.731 71.7518 72.3652 70.9734C72.0297 69.7716 71.9218 68.5178 72.0472 67.2765V57.1059H69.4392V56.5347C70.8953 55.8423 72.1613 54.8079 73.1286 53.52C74.1485 52.4121 74.8563 51.0544 75.18 49.5851H75.7843V56.2491H80.0938V57.1059Z" fill="#070B0E"/>
<path d="M97.1094 67.4193C96.8572 69.0865 96.0007 70.6034 94.7022 71.6825C93.4038 72.7617 91.7537 73.328 90.0647 73.2741C88.9476 73.2621 87.8443 73.0273 86.8195 72.5837C85.7948 72.1401 84.8692 71.4966 84.0973 70.6909C83.3254 69.8853 82.7227 68.9338 82.3247 67.8923C81.9266 66.8509 81.7413 65.7407 81.7795 64.6267C81.7626 63.4741 81.9749 62.3295 82.4039 61.2592C82.8329 60.1888 83.4702 59.2139 84.279 58.3907C85.0878 57.5675 86.0521 56.9123 87.1161 56.4631C88.1801 56.0138 89.3228 55.7793 90.4781 55.7731C94.2152 55.7731 96.5051 58.1055 96.5051 60.1047C96.5245 60.3884 96.4863 60.673 96.3927 60.9415C96.2991 61.21 96.1521 61.4569 95.9605 61.6673C95.7689 61.8777 95.5367 62.0474 95.2778 62.166C95.0188 62.2847 94.7385 62.3499 94.4537 62.3578C94.189 62.3437 93.9298 62.2773 93.691 62.1625C93.4522 62.0476 93.2386 61.8867 93.0626 61.689C92.8866 61.4912 92.7517 61.2606 92.6656 61.0104C92.5796 60.7603 92.5441 60.4956 92.5613 60.2317C92.5652 59.8639 92.6448 59.5009 92.7953 59.1651C92.9458 58.8294 93.1638 58.5281 93.436 58.28C93.5632 58.1214 93.6427 58.042 93.6427 57.8834C93.6427 57.7247 92.6408 56.5188 90.4622 56.5188C89.6954 56.4555 88.9285 56.6405 88.2754 57.0463C87.6223 57.4522 87.1177 58.0573 86.8364 58.7719C86.2795 61.0821 86.0493 63.4587 86.1526 65.8326C86.0723 67.1832 86.2065 68.5381 86.5502 69.8469C86.7824 70.6105 87.2676 71.2728 87.9263 71.7254C88.585 72.1779 89.3782 72.3939 90.176 72.338C91.5863 72.3145 92.9453 71.806 94.0232 70.8982C95.1011 69.9904 95.8317 68.7391 96.0917 67.3558L97.1094 67.4193Z" fill="#070B0E"/>
<path d="M97.9045 44.4601H104.266V58.6291C104.986 57.707 105.915 56.9676 106.976 56.4713C108.037 55.9751 109.201 55.7358 110.372 55.7731C111.191 55.7141 112.014 55.8246 112.788 56.0976C113.563 56.3706 114.272 56.8003 114.872 57.3598C115.658 58.4617 116.029 59.8041 115.922 61.1519V71.9413H118.578V72.7822H109.37V71.9413H111.946V60.8346C111.946 59.1527 111.946 56.8996 109.259 56.8996C108.573 56.8916 107.896 57.0438 107.28 57.3442C106.664 57.6445 106.127 58.0846 105.713 58.6291C104.472 60.2158 104.393 61.8025 104.297 65.0869V71.862H106.874V72.7029H97.6978V71.862H100.385V45.3011H97.9045V44.4601Z" fill="#070B0E"/>
<path d="M146.614 63.7858H143.958C143.891 65.1678 143.579 66.5269 143.036 67.8001C142.187 69.4941 140.868 70.9084 139.235 71.8736C137.602 72.8387 135.725 73.314 133.828 73.2424C131.974 73.2637 130.146 72.804 128.524 71.9084C126.901 71.0127 125.54 69.7119 124.573 68.1333C122.701 65.3703 121.75 62.0893 121.854 58.7561C121.738 55.238 122.826 51.7854 124.939 48.9663C125.994 47.483 127.378 46.2631 128.983 45.4016C130.589 44.5402 132.372 44.0605 134.194 44C136.427 44.0373 138.593 44.7634 140.396 46.0785L141.716 44.4919H142.4L142.638 52.8536H141.875C141.716 52.0127 140.285 44.9203 134.099 44.9203C133.331 44.9029 132.564 44.9991 131.825 45.2059C131.107 45.4315 130.443 45.7994 129.872 46.2874C129.301 46.7755 128.835 47.3736 128.501 48.046C127.372 50.3308 127.292 55.8048 127.292 58.5657C127.273 61.1672 127.395 63.7679 127.658 66.3562C127.817 67.6414 128.453 72.2745 133.383 72.2745C134.252 72.3108 135.116 72.1153 135.885 71.7082C136.653 71.301 137.299 70.6969 137.756 69.958C138.676 68.0438 139.05 65.9139 138.838 63.8017H134.703V62.8814H146.614V63.7858Z" fill="#070B0E"/>
<path d="M147.266 56.2332H153.834V60.1047C154.075 59.3861 154.412 58.703 154.835 58.0738C155.222 57.4257 155.765 56.8844 156.415 56.4992C157.065 56.114 157.801 55.8971 158.557 55.8683C158.89 55.8395 159.226 55.8807 159.543 55.9891C159.86 56.0976 160.15 56.2709 160.396 56.4981C160.641 56.7252 160.837 57.0011 160.969 57.3079C161.101 57.6148 161.168 57.946 161.165 58.28C161.173 58.5554 161.126 58.8296 161.024 59.0858C160.922 59.342 160.769 59.5746 160.574 59.7694C160.379 59.9642 160.146 60.117 159.889 60.2183C159.632 60.3197 159.357 60.3674 159.081 60.3586C158.843 60.3607 158.606 60.3154 158.385 60.2252C158.164 60.1351 157.963 60.0019 157.795 59.8335C157.626 59.6651 157.493 59.4649 157.402 59.2445C157.312 59.0241 157.266 58.7879 157.268 58.5498C157.189 57.7088 157.189 57.5184 156.791 57.5184C156.712 57.5184 155.949 57.5184 155.106 59.5494C154.185 61.918 153.773 64.4533 153.897 66.9909V71.862H156.505V72.7029H147.314V71.862H150.033V57.0742H147.266V56.2332Z" fill="#070B0E"/>
<path d="M169.784 73.1789C167.464 73.1789 165.239 72.2595 163.599 70.6229C161.959 68.9863 161.037 66.7667 161.037 64.4522C161.037 62.1377 161.959 59.9181 163.599 58.2815C165.239 56.6449 167.464 55.7255 169.784 55.7255C170.913 55.74 172.029 55.9771 173.067 56.4233C174.104 56.8695 175.043 57.516 175.829 58.3255C176.616 59.1351 177.234 60.0917 177.648 61.1404C178.062 62.1891 178.265 63.3093 178.244 64.4363C178.267 65.5655 178.066 66.6881 177.653 67.7396C177.24 68.791 176.622 69.7506 175.836 70.5631C175.05 71.3756 174.11 72.025 173.072 72.4739C172.033 72.9228 170.916 73.1624 169.784 73.1789ZM172.583 57.7089C171.83 57.0203 170.836 56.6555 169.816 56.6934C168.798 56.6659 167.805 57.0037 167.017 57.6454C165.617 58.883 165.617 60.2475 165.617 65.3566C165.617 68.4348 165.617 70.1166 167.017 71.3066C167.788 71.9566 168.775 72.2961 169.784 72.2586C170.291 72.2862 170.799 72.2088 171.275 72.0313C171.751 71.8538 172.186 71.5801 172.551 71.2273C173.6 70.1484 173.712 68.9901 173.712 64.5157C173.712 63.4367 173.712 62.3578 173.712 61.2313C173.773 59.9598 173.372 58.7089 172.583 57.7089Z" fill="#070B0E"/>
<path d="M189.916 56.2333H196.373V71.862H199.092V72.7029H192.588V70.4974C191.967 71.3936 191.123 72.1125 190.138 72.5828C189.154 73.0531 188.063 73.2586 186.974 73.1789C185.417 73.2462 183.893 72.7185 182.712 71.7033C182.189 71.036 181.802 70.2718 181.576 69.4549C181.349 68.6379 181.287 67.7844 181.392 66.9433V57.0742H178.737V56.2333H185.193V67.8001C185.193 69.7993 185.193 72.0365 187.833 72.0365C188.862 72.0461 189.864 71.7108 190.68 71.0845C192.397 69.7676 192.556 67.7208 192.604 64.1349V57.0742H189.916V56.2333Z" fill="#070B0E"/>
<path d="M199.458 56.2332H205.819V59.1844C206.821 57.5978 207.981 55.7414 210.987 55.7414C214.867 55.7414 218 59.3748 218 64.1349C218 68.8949 214.963 73.163 210.796 73.163C209.691 73.1314 208.621 72.7612 207.734 72.1027C206.846 71.4442 206.183 70.5293 205.835 69.482V83.1591H208.92V84H199.378V83.1591H201.986V57.0742H199.426L199.458 56.2332ZM213.356 59.8667C213.197 57.9944 212.434 56.5823 210.637 56.5823C208.84 56.5823 206.025 58.5815 206.025 64.7378C206.025 69.8152 208.474 72.211 210.51 72.211C213.197 72.211 213.436 69.2598 213.468 64.1349C213.468 63.3098 213.468 61.263 213.356 59.8667Z" fill="#070B0E"/>
</svg>
