<svg width="256" height="128" viewBox="0 0 256 128" fill="none" xmlns="http://www.w3.org/2000/svg">
<path d="M58 49.7083V50L60.8216 52.0833V77.125L58 79.2083V79.5H72.3156C77.5439 79.5 81.6934 77 81.6934 70.9167C81.6934 66.0833 77.7929 64 74.6393 63.5C77.1705 63 79.9921 61.125 79.9921 57.2083C79.9921 50.875 73.8924 49.7083 69.743 49.7083H58ZM65.1786 77.125V64.6667L65.469 64.3333H69.0376C73.8094 64.3333 77.0045 65.7917 77.0045 70.9167C77.0045 74.7083 75.3447 77.4167 70.4069 77.4167H65.469L65.1786 77.125ZM65.1786 52.0833L65.469 51.7917H69.2035C72.6891 51.7917 75.6352 52.75 75.6352 57.2083C75.6352 61.5 72.3156 62.4167 69.7845 62.4167H65.469L65.1786 62.125V52.0833Z" fill="#070B0E"/>
<path d="M104 70.1667C104 64.7083 99.809 60.3333 94.0827 60.3333C88.3565 60.3333 84.1656 64.7083 84.1656 70.1667C84.1656 75.625 88.3565 80 94.0827 80C99.809 80 104 75.625 104 70.1667ZM99.643 70.1667C99.643 74.6667 97.9002 78.0833 94.0827 78.0833C90.2653 78.0833 88.5225 74.6667 88.5225 70.1667C88.5225 65.6667 90.2653 62.25 94.0827 62.25C97.9002 62.25 99.643 65.6667 99.643 70.1667Z" fill="#070B0E"/>
<path d="M133.02 60.8333H127.335V61.125L129.078 62.2083L125.841 71.5417L125.094 74.8333L124.513 72.2083L120.53 60.8333H118.621L114.887 71.5417L114.14 74.8333L113.559 72.2083L110.032 62.1667L111.733 61.125V60.8333H103.808V61.125L106.048 62.4583L111.982 79.5H114.015L118.455 66.75L122.895 79.5H124.97L130.904 62.4167L133.02 61.125V60.8333Z" fill="#070B0E"/>
<path d="M140.241 63.0417L140.532 62.75H144.681V60.8333H140.532L140.241 60.5417V53.875H139.494C139.494 53.875 138.291 60.3333 133.727 62V62.75H136.133L136.424 63.0417V74.0417C136.424 77.9167 138.498 80 142.565 80C145.636 80 147.046 77.6667 147.586 76.75L146.839 76.1667C146.216 77 145.138 78.0417 143.146 78.0417C141.03 78.0417 140.241 76.2917 140.241 74.2083V63.0417Z" fill="#070B0E"/>
<path d="M149.353 52.2917C149.353 53.75 150.515 54.875 151.925 54.875C153.336 54.875 154.498 53.75 154.498 52.2917C154.498 50.8333 153.336 49.7083 151.925 49.7083C150.515 49.7083 149.353 50.8333 149.353 52.2917ZM154.083 59.9583L148.066 61.7083V62L150.266 63.0417V77.875L148.066 79.2083V79.5H156.282V79.2083L154.083 77.875V59.9583Z" fill="#070B0E"/>
<path d="M174.137 73.5C172.269 77.3333 169.448 78.0833 167.083 78.0833C163.431 78.0833 161.232 75.4583 161.232 70.1667H174.967V69C174.967 64.125 171.274 60.3333 166.294 60.3333C161.398 60.3333 156.875 64.25 156.875 70.1667C156.875 76.625 161.273 80 167.083 80C170.817 80 173.556 77.8333 175.133 74.4167L174.137 73.5ZM166.211 62.25C169.738 62.25 171.149 65.25 171.149 67.875V68.25H161.273C161.398 65.3333 162.684 62.25 166.211 62.25Z" fill="#070B0E"/>
<path d="M192.896 79.5H198V79.2083L195.801 77.875V48L189.784 49.7083V50L191.983 51.0833V63.0417C190.987 61.5 188.788 60.3333 186.713 60.3333C181.153 60.3333 177.336 64.2917 177.336 70.1667C177.336 75.5833 180.821 80 186.713 80C189.328 80 191.734 78.5417 192.896 76.625V79.5ZM181.693 70.1667C181.693 65.125 183.352 62.25 186.713 62.25C189.535 62.25 191.983 64.4167 191.983 67.6667V73.125C191.983 76.0833 189.535 78.0833 186.713 78.0833C183.352 78.0833 181.693 75.0833 181.693 70.1667Z" fill="#070B0E"/>
</svg>
