<svg width="256" height="128" viewBox="0 0 256 128" fill="none" xmlns="http://www.w3.org/2000/svg">
<path d="M76.5171 40C63.7974 47.305 59.2197 62.8593 46.5 70.1735C51.5474 75.2472 56.5671 80.2931 61.6145 85.3668C74.3342 78.0618 78.9119 62.5075 91.6316 55.1932C86.5842 50.1196 81.5645 45.0737 76.5171 40ZM74.3711 68.0163C71.4329 70.9698 66.6711 70.9698 63.7697 68.0163C60.8316 65.0628 60.8316 60.2762 63.7697 57.3597C66.7079 54.4063 71.4698 54.4063 74.3711 57.3597C77.3 60.3039 77.3 65.0628 74.3711 68.0163Z" fill="#070B0E"/>
<path d="M72.4627 62.1076C71.3667 61.0058 69.5891 61.0058 68.493 62.1076C68.0233 62.5798 67.2588 62.5798 66.7983 62.1076C66.3377 61.6354 66.3285 60.8669 66.7983 60.404C67.0377 60.1633 67.3509 60.0429 67.6825 60.0522C68.1246 60.0615 68.493 59.7189 68.5114 59.2745C68.5206 58.8301 68.1798 58.4597 67.7377 58.4412C67.2404 58.4227 66.7522 58.5431 66.3193 58.7838L65.9233 58.3857C65.6101 58.0709 65.1035 58.0709 64.7904 58.3857C64.4772 58.7005 64.4772 59.2097 64.7904 59.5245L65.1864 59.9226C64.6154 60.9873 64.7719 62.3576 65.6746 63.2556C66.7706 64.3574 68.5483 64.3574 69.6443 63.2556C70.1141 62.7835 70.8785 62.7835 71.3391 63.2556C71.8088 63.7278 71.8088 64.4963 71.3391 64.9592C71.0996 65.1999 70.7864 65.3203 70.4548 65.311C70.0127 65.3018 69.6443 65.6443 69.6259 66.0888C69.6167 66.5332 69.9575 66.9035 70.3996 66.922C70.897 66.9405 71.3851 66.8202 71.818 66.5795L72.2141 66.9776C72.5272 67.2924 73.0338 67.2924 73.347 66.9776C73.6601 66.6628 73.6601 66.1536 73.347 65.8388L72.9509 65.4407C73.522 64.3759 73.3654 63.0149 72.4627 62.1076Z" fill="#070B0E"/>
<path d="M114.41 54.8719H106.795L107.682 49.85H128.068L127.182 54.8719H119.567L115.498 78.1993H110.341L114.41 54.8719Z" fill="#070B0E"/>
<path d="M132.993 78.6042C130.065 78.6042 127.849 77.7943 126.345 76.1743C124.841 74.5543 124.089 72.4619 124.089 69.897C124.089 67.818 124.559 65.8336 125.499 63.9436C126.466 62.0537 127.809 60.5282 129.528 59.3672C131.274 58.2063 133.248 57.6258 135.45 57.6258C137.545 57.6258 139.157 58.1523 140.285 59.2052C141.44 60.2582 142.017 61.6892 142.017 63.4981C142.017 65.7931 141.104 67.4805 139.278 68.5605C137.478 69.6135 135.182 70.14 132.388 70.14C131.045 70.14 130.025 70.059 129.326 69.897C129.407 71.4629 129.89 72.6239 130.777 73.3799C131.663 74.1089 132.724 74.4733 133.96 74.4733C136.108 74.4733 138.217 73.9199 140.285 72.8129L139.721 77.0653C137.814 78.0913 135.571 78.6042 132.993 78.6042ZM131.583 66.8595C133.839 66.8595 135.437 66.5626 136.377 65.9686C137.344 65.3746 137.827 64.6321 137.827 63.7411C137.827 62.9581 137.545 62.4317 136.981 62.1617C136.444 61.8917 135.867 61.7567 135.249 61.7567C133.852 61.7567 132.657 62.2832 131.663 63.3361C130.696 64.3891 130.052 65.5096 129.729 66.6976C130.159 66.8055 130.777 66.8595 131.583 66.8595Z" fill="#070B0E"/>
<path d="M146.863 57.9498H151.255L151.456 59.1647C152.235 58.6788 153.014 58.3008 153.793 58.0308C154.599 57.7608 155.499 57.6258 156.493 57.6258C158.507 57.6258 160.025 58.2468 161.045 59.4887C162.066 60.7307 162.576 62.3912 162.576 64.4701C162.576 64.9561 162.455 66.0091 162.214 67.629C161.972 69.222 161.367 72.7454 160.401 78.1993H155.364C156.761 70.2075 157.459 65.8606 157.459 65.1586C157.459 63.9706 157.231 63.1066 156.775 62.5667C156.318 62.0267 155.593 61.7567 154.599 61.7567C153.874 61.7567 153.216 61.9052 152.625 62.2022C152.061 62.4722 151.483 62.9042 150.892 63.4981L148.314 78.1993H143.318L146.863 57.9498Z" fill="#070B0E"/>
<path d="M188.084 47.825L182.766 78.1993H178.012L178.415 76.0528C176.589 77.7538 174.641 78.6042 172.573 78.6042C170.29 78.6042 168.517 77.8483 167.255 76.3363C165.993 74.7973 165.361 72.8264 165.361 70.4235C165.361 68.2365 165.778 66.1576 166.61 64.1866C167.47 62.2157 168.692 60.6362 170.277 59.4482C171.861 58.2333 173.701 57.6258 175.796 57.6258C178.026 57.6258 179.731 58.4493 180.913 60.0962L183.089 47.825H188.084ZM174.306 74.4733C175.568 74.4733 176.616 74.0684 177.448 73.2584C178.308 72.4484 178.939 71.4224 179.342 70.1805C179.745 68.9385 179.946 67.6695 179.946 66.3736C179.946 63.2956 178.751 61.7567 176.36 61.7567C175.232 61.7567 174.225 62.1212 173.339 62.8502C172.452 63.5521 171.767 64.5106 171.284 65.7256C170.8 66.9405 170.559 68.277 170.559 69.735C170.559 71.2199 170.868 72.3809 171.485 73.2179C172.103 74.0549 173.043 74.4733 174.306 74.4733Z" fill="#070B0E"/>
<path d="M193.344 76.8628L188.59 57.9498H194.15L196.648 70.9904L203.94 57.9498H209.5L192.055 88H187.099L193.344 76.8628Z" fill="#070B0E"/>
</svg>
