<svg width="256" height="128" viewBox="0 0 256 128" fill="none" xmlns="http://www.w3.org/2000/svg">
<path d="M68.1582 51.8445L45.1546 76.703C44.8041 76.1555 44.4787 75.5832 44.2034 75.0109L68.3084 51.1229C68.333 51.1025 68.3649 51.0756 68.4005 51.0454C68.583 50.8911 68.8637 50.6537 68.759 50.7994C68.6839 50.874 68.2834 51.5956 68.1582 51.8445Z" fill="#070B0E"/>
<path d="M67.5324 54.8554L52.6139 84.2177C53.1145 84.5412 53.6401 84.8647 54.1658 85.1384L67.5825 55.7014C67.5575 55.4277 67.5324 55.154 67.5324 54.8554Z" fill="#070B0E"/>
<path d="M67.8328 52.7154C67.8182 52.7009 67.7951 52.7372 67.7585 52.7946C67.7324 52.8357 67.6993 52.8875 67.6576 52.9393L47.7828 80.1369C48.2334 80.6345 48.6839 81.0824 49.1846 81.5303L67.6326 53.7356C67.6576 53.437 67.7577 53.014 67.8328 52.7154Z" fill="#070B0E"/>
<path d="M80.7489 59.4588L89.3346 59.409C89.2846 59.1852 89.2345 58.9053 89.1845 58.6255C89.1344 58.3456 89.0843 58.0652 89.0342 57.8414L81.0743 59.0358C80.9742 59.1851 80.8741 59.3095 80.7489 59.4588Z" fill="#070B0E"/>
<path d="M73.6401 62.0964L82.0505 81.605C82.4761 81.2068 82.9016 80.7838 83.3021 80.3608L74.0906 62.1711C74.0072 62.1545 73.9015 62.1379 73.7958 62.1213C73.743 62.113 73.6901 62.1047 73.6401 62.0964Z" fill="#070B0E"/>
<path d="M81.7251 57.8663C81.7502 57.8663 81.8002 57.8414 81.8253 57.8165L87.5824 53.9098C87.3572 53.4619 87.0067 52.8149 86.7564 52.367L82.0505 56.9953C81.9754 57.3188 81.8503 57.5925 81.7251 57.8663Z" fill="#070B0E"/>
<path d="M79.4848 60.703C79.4286 60.7465 79.3722 60.7901 79.3221 60.8274L89.7602 65.4557C89.7693 65.2928 89.785 65.1035 89.8013 64.9071C89.8298 64.5637 89.8603 64.1977 89.8603 63.9129L79.6475 60.5785C79.5975 60.6158 79.5411 60.6594 79.4848 60.703Z" fill="#070B0E"/>
<path d="M67.8328 56.9456L58.321 86.8802C58.9217 87.0793 59.5224 87.2286 60.1231 87.3779L68.0581 57.6174L67.8328 56.9456Z" fill="#070B0E"/>
<path d="M75.6175 62.196L85.8553 77.126C85.9461 76.9782 86.0532 76.8089 86.1651 76.6321C86.3923 76.273 86.6387 75.8834 86.8065 75.5832L75.993 62.1462C75.938 62.1599 75.8754 62.166 75.8053 62.1729C75.7478 62.1786 75.6852 62.1847 75.6175 62.196Z" fill="#070B0E"/>
<path d="M77.57 61.7481L88.5837 71.5272C88.7339 71.0793 88.9592 70.3826 89.0843 69.9098L77.9204 61.5988C77.7952 61.6485 77.6701 61.6983 77.57 61.7481Z" fill="#070B0E"/>
<path d="M71.7627 61.4992L76.794 85.3126C77.3196 85.0389 77.9454 84.6905 78.421 84.3919L72.1632 61.6983C72.0381 61.6236 71.8879 61.549 71.7627 61.4992Z" fill="#070B0E"/>
<path d="M70.0606 60.3795L70.8616 87.4526C71.4873 87.3033 72.1133 87.1539 72.7389 86.9798L70.4861 60.7278C70.3747 60.6487 70.2836 60.5696 70.1998 60.4969C70.1518 60.4553 70.1062 60.4157 70.0606 60.3795Z" fill="#070B0E"/>
<path d="M64.5537 87.9751C64.9041 88 65.2795 88 65.6549 88C65.9052 88 66.1558 88 66.4311 87.9751L69.0594 59.3095C68.9812 59.2163 68.9129 59.1135 68.8421 59.007C68.7995 58.9428 68.756 58.8773 68.7089 58.8118L64.5537 87.9751Z" fill="#070B0E"/>
<path d="M74.366 47.465H74.4661C74.5412 47.465 74.6225 47.4588 74.7039 47.4526C74.7852 47.4463 74.8666 47.4401 74.9417 47.4401C79.0468 47.4401 82.376 50.7496 82.376 54.8305C82.376 55.2535 82.3259 55.6764 82.2758 56.0994C82.3509 56.0994 82.426 56.0498 82.451 56L84.3034 48.8834C84.2018 48.7622 84.0929 48.6283 83.9796 48.489C83.6743 48.1136 83.3371 47.6988 83.0268 47.3904L82.451 52.4914C82.3509 52.168 82.2007 51.8445 81.9004 51.2224C81.8002 51.0233 81.6751 50.7994 81.5249 50.6003L79.6976 44.5039C79.0718 44.056 78.421 43.633 77.7452 43.2348L80.1231 48.9829C79.8271 48.7059 79.531 48.453 79.3024 48.2577C79.2024 48.1723 79.1153 48.0979 79.0468 48.0373L74.0406 41.493C73.2396 41.1944 72.4135 40.9456 71.5625 40.7216L77.6701 47.5397L77.5199 47.5148L67.6576 40.0995C67.0068 40.0498 66.3309 40 65.6551 40C65.4799 40 65.2796 40 65.1044 40.0249L74.8416 46.4946L61.2997 40.3981C60.5237 40.5474 59.7728 40.7216 59.0218 40.9207L73.6901 46.6439L55.142 42.3888C54.4411 42.7372 53.7653 43.0855 53.0894 43.5085L71.8879 46.9176L49.7603 45.9471C49.2597 46.395 48.5087 47.0918 48.0582 47.5894L71.0118 47.465L45.5801 50.6998C45.1546 51.3219 44.7791 51.9689 44.4036 52.6158L70.2608 48.1369L42.6514 56.6967C42.4512 57.3188 42.276 57.9409 42.1258 58.5879L69.6851 48.8336L41.5501 62.7434C41.525 63.1664 41.525 63.5894 41.525 64.0124C41.525 64.0995 41.5188 64.2426 41.5125 64.3857C41.5063 64.5288 41.5 64.6719 41.5 64.7589L69.3097 49.5801L42.0257 68.9642C42.1371 69.518 42.2882 70.0521 42.4436 70.6016C42.4627 70.6692 42.4821 70.7374 42.5013 70.8056L69.2346 50.1524C69.2971 50.0778 69.366 50.0031 69.4348 49.9285C69.5036 49.8538 69.5725 49.7791 69.6351 49.7045C69.9354 49.4308 70.361 49.0575 70.8366 48.7092C71.8128 48.0124 73.2896 47.5645 74.366 47.465Z" fill="#070B0E"/>
<path d="M129.685 54.3327C126.581 54.3327 124.403 56.2736 124.403 58.6873C124.403 61.4991 126.28 62.4698 129.935 63.6144C133.539 64.759 134.391 65.6545 134.391 67.4213C134.391 69.3124 132.739 70.4821 130.185 70.4821C127.782 70.4821 126.055 69.2875 125.304 66.9236L123.853 67.4465C124.654 70.2086 126.907 71.9252 130.086 71.9003C133.49 71.9003 135.993 70.0839 135.993 67.2721C135.993 64.5349 134.266 63.3656 130.711 62.2458C127.132 61.1012 126.005 60.454 126.005 58.5629C126.005 57.0201 127.382 55.8009 129.66 55.8009C131.787 55.8009 133.289 56.672 134.141 58.8618L135.517 58.2144C134.716 55.95 132.889 54.3327 129.685 54.3327Z" fill="#070B0E"/>
<path d="M101.875 54.706V71.6267H103.502V54.706H101.875Z" fill="#070B0E"/>
<path d="M107.983 54.706V71.6267H109.61V63.4399H118.822V71.6267H120.449V54.706H118.822V61.9469H109.61V54.706H107.983Z" fill="#070B0E"/>
<path d="M144.378 54.706V71.6267H145.905V57.3936H145.955C146.305 58.588 146.581 59.3095 147.007 60.4044L151.412 71.6019H152.914L157.319 60.4044C157.401 60.181 157.484 59.9566 157.566 59.7345C157.885 58.8682 158.192 58.0372 158.371 57.4431H158.421V71.6267H160.073V54.706H157.92L152.263 69.5116H152.213L146.506 54.706H144.378Z" fill="#070B0E"/>
<path d="M185.98 71.6267H187.557V67.8198L190.185 65.0326L193.965 71.6267H195.667L191.237 63.8385L195.192 59.583H193.339L187.557 65.9283V54.706H185.98V71.6267Z" fill="#070B0E"/>
<path d="M198.245 55.0792V56.7715H199.923V55.0792H198.245Z" fill="#070B0E"/>
<path d="M204.603 55.2537V59.583H202.476V60.9268H204.603V68.8151C204.603 70.8804 205.48 71.7762 207.807 71.8011C208.358 71.8011 208.984 71.7261 209.359 71.6514V70.3081C209.009 70.4077 208.533 70.4573 208.083 70.4573C206.606 70.4573 206.18 69.7605 206.18 68.4914V60.9268H209.334V59.583H206.18V55.2537H204.603Z" fill="#070B0E"/>
<path fill-rule="evenodd" clip-rule="evenodd" d="M169.334 59.3342C166.931 59.3342 165.254 60.2549 163.802 61.5737L164.654 62.569C165.93 61.4741 167.282 60.678 169.184 60.678C170.761 60.678 171.637 61.4743 171.637 63.1415V63.7636C165.48 64.7092 163.427 66.4263 163.427 68.8151C163.427 70.6814 164.704 71.826 166.881 71.8011C168.684 71.8011 170.261 71.1539 171.662 69.8848C171.662 70.5816 171.787 71.1042 171.938 71.6019H173.565C173.314 71.0047 173.214 70.1088 173.214 68.6406V63.1663C173.214 60.7775 172.038 59.3342 169.334 59.3342ZM171.637 64.8586V68.6159C170.411 69.8103 168.909 70.5069 167.182 70.5069C165.83 70.5069 164.979 69.8601 164.979 68.5911C164.979 66.9985 166.431 65.7295 171.637 64.8586Z" fill="#070B0E"/>
<path d="M183.327 59.3342C180.924 59.3342 179.472 60.4539 178.521 61.9469H178.471V59.5582H176.919V71.6019H178.496V63.7636C179.422 61.8725 180.999 60.7776 182.976 60.7776C183.026 60.7776 183.452 60.8024 183.452 60.8024L183.602 59.3342H183.327Z" fill="#070B0E"/>
<path d="M198.296 59.5582V71.6019H199.872V59.5582H198.296Z" fill="#070B0E"/>
<path fill-rule="evenodd" clip-rule="evenodd" d="M212.864 59.0358C212.763 59.0358 212.688 59.0358 212.638 59.0607L212.538 60.4292H212.814L212.839 59.8072L213.089 59.9067L213.439 60.4541H213.765L213.414 59.8818L213.264 59.8072C213.389 59.7823 213.464 59.7574 213.539 59.7076C213.615 59.6579 213.665 59.5583 213.665 59.4588C213.665 59.3095 213.615 59.21 213.514 59.1353C213.414 59.0855 213.289 59.0358 213.139 59.0358H212.864ZM212.989 59.2597H213.089C213.289 59.2597 213.389 59.3095 213.389 59.4588C213.364 59.5334 213.339 59.5832 213.289 59.6081C213.239 59.6579 213.164 59.6579 213.064 59.6579H212.889L212.914 59.2846C212.914 59.2597 212.964 59.2597 212.989 59.2597Z" fill="#070B0E"/>
<path fill-rule="evenodd" clip-rule="evenodd" d="M211.887 59.1104C211.812 59.2597 211.762 59.4588 211.762 59.6827C211.762 59.9067 211.787 60.1058 211.837 60.2799C211.912 60.4541 211.987 60.6034 212.113 60.7279C212.238 60.8523 212.363 60.9269 212.538 61.0016C212.688 61.0513 212.864 61.1011 213.064 61.1011C213.239 61.1011 213.414 61.0762 213.59 61.0265C213.765 60.9767 213.915 60.8772 214.04 60.7776C214.19 60.6532 214.29 60.5288 214.365 60.3546C214.441 60.2053 214.491 60.0062 214.491 59.7823C214.516 59.5583 214.491 59.3593 214.416 59.1851C214.34 59.0109 214.265 58.8616 214.14 58.7372C214.015 58.6128 213.89 58.5381 213.715 58.4635C213.564 58.4137 213.389 58.3639 213.189 58.3639C213.014 58.3639 212.839 58.3888 212.663 58.4386C212.488 58.4883 212.363 58.563 212.213 58.6874C212.063 58.8118 211.962 58.9362 211.887 59.1104ZM212.163 60.1804C212.113 60.056 212.088 59.8818 212.088 59.7076C212.113 59.5334 212.138 59.3593 212.188 59.2348C212.238 59.1104 212.313 58.986 212.413 58.9114C212.513 58.8367 212.638 58.7869 212.763 58.7372C212.889 58.6874 213.039 58.6874 213.189 58.6874C213.339 58.6874 213.464 58.7123 213.59 58.7621C213.715 58.8118 213.815 58.8865 213.915 58.986C214.015 59.0855 214.09 59.21 214.14 59.3344C214.19 59.4588 214.215 59.633 214.215 59.8072C214.215 59.9813 214.165 60.1555 214.115 60.2799C214.065 60.4044 213.99 60.5288 213.89 60.6034C213.79 60.6781 213.665 60.7279 213.539 60.7776C213.414 60.8274 213.264 60.8274 213.114 60.8274C212.964 60.8274 212.839 60.8025 212.713 60.7527C212.588 60.703 212.488 60.6283 212.388 60.5288C212.288 60.4292 212.213 60.3048 212.163 60.1804Z" fill="#070B0E"/>
</svg>
