<svg width="256" height="128" viewBox="0 0 256 128" fill="none" xmlns="http://www.w3.org/2000/svg">
<path fill-rule="evenodd" clip-rule="evenodd" d="M158.454 70.6087C158.454 72.1739 159.738 73.4783 161.363 73.4783C162.988 73.4783 164.271 72.1739 164.271 70.6087V61.2174H169.319V71.6522C169.319 75.1304 165.726 78 161.277 78C156.829 78 153.236 75.1304 153.236 71.6522V61.2174H158.369V70.6087H158.454ZM180.867 77.3913H186V50H180.867V77.3913ZM172.227 77.3913H177.36V50H172.227V77.3913ZM78.2979 55.7391H75.4749V77.3913H70V51.3044H79.41C83.6873 51.3044 87.1091 54.7826 87.1091 59.0435C87.1091 62.6087 84.6283 65.7391 81.2065 66.5217L88.7345 77.4783H82.3186L76.8437 68.9565V62.6957H78.1268C80.1799 62.6957 81.8053 61.1304 81.8053 59.3043C81.8053 57.3043 80.2655 55.7391 78.2979 55.7391Z" fill="#070B0E"/>
<path fill-rule="evenodd" clip-rule="evenodd" d="M93.6107 67.3913C93.5251 65.6522 94.8083 64.087 96.6048 64C98.3157 63.913 99.8555 65.2174 99.941 67.0435V67.3913H93.6107ZM104.903 70.3478C104.903 70 104.988 69.6522 104.988 69.2174C105.074 63.5652 101.395 60.4348 96.6903 60.4348C91.9853 60.4348 88.2213 64.3478 88.2213 69.1304C88.2213 73.913 91.9853 77.8261 96.6903 77.8261C100.283 77.8261 103.021 76.1739 104.475 73.6522L100.283 71.6522C99.6844 72.8696 98.4012 73.6522 97.0325 73.6522C95.0649 73.6522 93.5251 72.1739 93.5251 70.4348V70.2609C93.6107 70.3478 104.903 70.3478 104.903 70.3478ZM116.537 73.3913C114.484 73.3913 112.773 71.4783 112.773 69.2174C112.773 66.8696 114.484 65.0435 116.537 65.0435C118.59 65.0435 120.301 66.9565 120.301 69.2174C120.301 71.5652 118.59 73.3913 116.537 73.3913ZM125.348 77.3913V50H120.215V62.9565C118.847 61.5652 116.965 60.7826 115.083 60.7826C110.891 60.7826 107.383 64.6087 107.383 69.3044C107.383 74 110.805 77.8261 115.083 77.8261C117.05 77.8261 118.932 76.9565 120.301 75.5652V77.3913H125.348ZM142.799 72.8696H137.923V55.7391H141.345C142.885 55.7391 144.083 57.1304 144.083 58.6957C144.083 60.2609 142.885 61.4783 141.345 61.4783H139.549V66.1739H142.799C144.596 66.1739 145.965 67.6522 145.965 69.4783V69.5652C145.879 71.3913 144.767 72.7826 142.799 72.8696ZM147.077 63.2174C148.531 61.913 149.301 60.087 149.301 58.1739C149.301 56.4348 148.617 54.7826 147.419 53.4783C146.221 52.087 143.997 51.3913 141.089 51.3913H132.363V77.4783H143.74C148.103 77.3913 151.611 74.087 151.611 70C151.525 66.9565 150.499 64.8696 147.077 63.2174Z" fill="#070B0E"/>
</svg>
