<svg width="1058" height="92" viewBox="0 0 1058 92" fill="none" xmlns="http://www.w3.org/2000/svg">
<path d="M208 0H233.272V69.2414H290.413V92H208V0Z" fill="#070B0E"/>
<path d="M347.454 0H381.315L426.754 92H399.118L390.901 75.5862H337.37L329.403 92H300.77L347.454 0ZM382.062 56.4138L364.136 19.7241L346.458 56.4138H382.062Z" fill="#070B0E"/>
<path d="M438.381 0H478.467L508.718 61.1035L538.845 0H578.682V92H554.033L555.277 20.9655L518.428 92H498.261L462.034 20.9655L462.781 92H438.381V0Z" fill="#070B0E"/>
<path d="M600.316 0H675.259C680.114 0 683.974 0.275867 686.837 0.827592C689.7 1.37932 692.19 2.2069 694.431 3.31035C697.668 5.24139 700.157 7.72415 701.651 11.0345C703.145 14.3448 703.892 18.7586 703.892 24.1379C703.892 32.4138 702.025 38.069 698.539 41.1035C697.294 42.2069 695.8 43.1724 694.306 43.7241C692.812 44.2759 690.572 44.8276 687.584 45.3793C691.319 45.7931 694.182 46.3448 696.174 46.8966C698.166 47.4483 699.908 48.2759 701.402 49.3793C705.261 52.5517 707.253 58.3448 707.253 66.7586C707.253 77.6552 704.017 84.9655 697.668 88.8276C695.676 89.931 693.31 90.7586 690.323 91.3103C687.335 91.8621 683.476 92 678.745 92H600.316V0ZM667.416 36.6897C669.782 36.6897 671.525 36.6897 672.645 36.5517C673.765 36.4138 674.761 36.1379 675.633 35.5862C677.749 34.2069 678.869 32 678.869 28.6897C678.869 24.8276 677.376 22.3448 674.512 21.1035C673.641 20.8276 672.769 20.6897 671.773 20.5517C670.778 20.5517 669.159 20.4138 666.794 20.4138H624.965V36.6897H667.416ZM670.155 71.5862C672.645 71.5862 674.388 71.5862 675.259 71.4483C676.131 71.4483 677.002 71.1724 677.874 70.8966C680.488 69.931 681.857 67.4483 681.857 63.3104C681.857 59.1724 680.363 56.5517 677.625 55.4483C677.127 55.4483 676.753 55.3103 676.504 55.1724C676.131 55.1724 675.633 55.0345 675.135 54.8966C674.512 54.8966 673.765 54.7586 672.894 54.7586H624.965V71.5862H670.155Z" fill="#070B0E"/>
<path d="M819.115 0V20.8276H752.015V36.6897H815.256V54.8966H752.015V71.1724H819.986V92H727.116V0H819.115Z" fill="#070B0E"/>
<path d="M838.72 0H910.303C913.29 0 915.905 0.137937 918.145 0.137937C920.386 0.275867 922.378 0.413796 924.121 0.689654C925.864 0.965521 927.358 1.37932 928.727 1.7931C930.097 2.2069 931.466 2.75863 932.711 3.31035C936.321 5.24139 938.935 8.27586 940.678 12.5517C942.421 16.9655 943.293 22.6207 943.293 29.7931C943.293 39.5862 941.55 46.4828 938.064 50.6207C937.317 51.4483 936.446 52.2759 935.574 52.8276C934.703 53.3793 933.582 53.931 932.213 54.4828C930.843 55.0345 929.225 55.4483 927.233 55.8621C925.241 56.2759 922.876 56.6897 920.137 57.1035C921.009 57.2414 921.88 57.3793 922.627 57.3793C923.374 57.3793 923.872 57.3793 924.245 57.3793C928.478 57.6552 931.715 58.2069 933.707 58.8966C935.699 59.5862 937.441 60.6897 938.686 62.3448C939.931 64 940.803 65.931 941.301 68.1379C941.799 70.4828 942.172 73.6552 942.172 77.5172V92H916.527V80.5517C916.527 77.931 916.278 75.8621 915.78 74.3448C915.282 72.8276 914.535 71.5862 913.415 70.6207C912.419 69.931 911.174 69.5172 909.805 69.2414C908.311 68.9655 905.945 68.8276 902.584 68.8276H863.868V92H838.72V0ZM903.331 46.3448C906.319 46.3448 908.809 46.2069 910.676 45.931C912.543 45.6552 914.037 45.2414 915.158 44.4138C916.154 43.5862 916.901 42.4828 917.274 41.1035C917.647 39.7241 917.896 37.931 917.896 35.5862C917.896 32.6897 917.647 30.4828 917.398 28.9655C917.149 27.5862 916.527 26.3448 915.78 25.2414C915.282 24.6897 914.66 24.2759 914.162 24C913.664 23.7241 912.917 23.4483 912.045 23.1724C911.174 22.8966 910.178 22.7586 908.933 22.7586C907.688 22.7586 906.07 22.6207 904.202 22.6207H863.868V46.3448H903.331Z" fill="#070B0E"/>
<path d="M995.755 22.7586H958.781V0H1058V22.7586H1021.03V92H995.755V22.7586Z" fill="#070B0E"/>
<path d="M0.893878 92H159.106C159.695 88.0857 160 84.0785 160 80C160 75.9215 159.695 71.9143 159.106 68H109.359L144.582 32.7769C139.83 26.2889 134.124 20.5437 127.67 15.7477L92 51.4177V0.894014C88.0976 0.307 84.1029 0.00186337 80.0373 0H79.9624C75.8969 0.00186268 71.9023 0.306986 68 0.893975V51.4177L32.3299 15.7476C25.8762 20.5435 20.17 26.2888 15.4179 32.7767L50.6412 68H0.893876C0.311999 71.8683 0.00709449 75.8272 0 79.8561V80.1439C0.0070945 84.1728 0.312 88.1317 0.893878 92Z" fill="#6D7170"/>
</svg>
