<svg width="128" height="128" viewBox="0 0 128 128" fill="none" xmlns="http://www.w3.org/2000/svg">
<path d="M62 52H54V54H52V62H54V64H62V62H64V54H62V52ZM60 60H56V56H60V60Z" fill="#070B0E" fill-opacity="0.16"/>
<path d="M82 46V44H46V46H44V82H46V84H82V82H84V46H82ZM80 68H78V66H76V64H74V62H68V64H66V66H64V68H62V70H60V72H58V74H56V76H54V78H52V80H50V78H48V50H50V48H78V50H80V68ZM80 78H78V80H58V78H60V76H62V74H64V72H66V70H68V68H70V66H72V68H74V70H76V72H78V74H80V78Z" fill="#070B0E" fill-opacity="0.16"/>
</svg>
