<svg width="24" height="24" viewBox="0 0 24 24" fill="none" xmlns="http://www.w3.org/2000/svg">
<path d="M6.48744 5.00091C6.48707 5.81522 5.9946 6.548 5.24224 6.85371C4.48988 7.15943 3.62787 6.97703 3.06269 6.39253C2.49751 5.80802 2.34202 4.93813 2.66953 4.19305C2.99706 3.44797 3.74218 2.97648 4.55356 3.00091C5.63122 3.03336 6.48793 3.91935 6.48744 5.00091ZM6.54725 8.48091H2.55986V21.0009H6.54725V8.48091ZM12.8474 8.48091H8.87988V21.0009H12.8075V14.4309C12.8075 10.7709 17.5625 10.4309 17.5625 14.4309V21.0009H21.5V13.0709C21.5 6.90091 14.4623 7.13091 12.8075 10.1609L12.8474 8.48091Z" fill="#070B0E"/>
</svg>
