<svg width="24" height="24" viewBox="0 0 24 24" fill="none" xmlns="http://www.w3.org/2000/svg">
<path d="M6.04167 17C4.63611 17 3.44444 16.5152 2.46667 15.5455C1.48889 14.5758 1 13.3939 1 12C1 10.6061 1.48889 9.42424 2.46667 8.45455C3.44444 7.48485 4.63611 7 6.04167 7C6.60694 7 7.14931 7.09848 7.66875 7.29545C8.18819 7.49242 8.65417 7.77273 9.06667 8.13636L10.625 9.54545L9.25 10.7727L7.82917 9.5C7.58472 9.28788 7.30972 9.12121 7.00417 9C6.69861 8.87879 6.37778 8.81818 6.04167 8.81818C5.15556 8.81818 4.39931 9.12879 3.77292 9.75C3.14653 10.3712 2.83333 11.1212 2.83333 12C2.83333 12.8788 3.14653 13.6288 3.77292 14.25C4.39931 14.8712 5.15556 15.1818 6.04167 15.1818C6.37778 15.1818 6.69861 15.1212 7.00417 15C7.30972 14.8788 7.58472 14.7121 7.82917 14.5L14.9333 8.13636C15.3458 7.77273 15.8118 7.49242 16.3313 7.29545C16.8507 7.09848 17.3931 7 17.9583 7C19.3639 7 20.5556 7.48485 21.5333 8.45455C22.5111 9.42424 23 10.6061 23 12C23 13.3939 22.5111 14.5758 21.5333 15.5455C20.5556 16.5152 19.3639 17 17.9583 17C17.3931 17 16.8507 16.9015 16.3313 16.7045C15.8118 16.5076 15.3458 16.2273 14.9333 15.8636L13.375 14.4545L14.75 13.2273L16.1708 14.5C16.4153 14.7121 16.6903 14.8788 16.9958 15C17.3014 15.1212 17.6222 15.1818 17.9583 15.1818C18.8444 15.1818 19.6007 14.8712 20.2271 14.25C20.8535 13.6288 21.1667 12.8788 21.1667 12C21.1667 11.1212 20.8535 10.3712 20.2271 9.75C19.6007 9.12879 18.8444 8.81818 17.9583 8.81818C17.6222 8.81818 17.3014 8.87879 16.9958 9C16.6903 9.12121 16.4153 9.28788 16.1708 9.5L9.06667 15.8636C8.65417 16.2273 8.18819 16.5076 7.66875 16.7045C7.14931 16.9015 6.60694 17 6.04167 17Z" fill="#B4B4B4"/>
</svg>
