<svg width="114" height="14" viewBox="0 0 114 14" fill="none" xmlns="http://www.w3.org/2000/svg">
<path d="M104.941 3.19893H99.6491V0H114V3.19893H108.708V14H104.941V3.19893Z" fill="#070B0E"/>
<path d="M87.1599 6.05914H92.4336C93.9771 6.05914 94.3997 5.38172 94.3997 4.57258V4.53495C94.3997 3.72581 93.9771 3.08602 92.4336 3.08602H87.1599V6.05914ZM95.4838 7.26344C97.3397 7.69624 98.4606 8.84409 98.4606 10.8952V12.3441C98.4606 13.3978 98.5525 13.6801 98.6811 13.9059V14H94.7672C94.7121 13.9059 94.6386 13.6425 94.6386 13.0215V11.8737C94.6386 10.0672 93.9954 9.23925 92.0844 9.23925H87.1599V14H83.3747V0H92.5806C97.7807 0 98.3687 2.22043 98.3687 3.74462V3.9328C98.3687 5.6828 97.1927 6.86828 95.4838 7.26344Z" fill="#070B0E"/>
<path d="M81.3431 0V3.04839H72.5598V5.32527H81.0675V8.48656H72.5598V10.914H81.4533V14H68.8297V0H81.3431Z" fill="#070B0E"/>
<path d="M51.7366 0H61.7142C65.6281 0 66.602 1.75 66.602 3.31183V3.51882C66.602 5.28763 65.1136 6.13441 64.0846 6.28495C65.6281 6.54839 67.2819 7.48925 67.2819 9.74731V9.9543C67.2819 11.8548 66.161 14 61.7693 14H51.7366V0ZM55.5218 2.91667V5.41935H61.163C62.3206 5.41935 62.6513 4.85484 62.6513 4.19624V4.1586C62.6513 3.48118 62.2838 2.91667 61.163 2.91667H55.5218ZM55.5218 8.16667V10.9328H61.457C62.78 10.9328 63.1658 10.2177 63.1658 9.5215V9.44624C63.1658 8.75 62.78 8.16667 61.457 8.16667H55.5218Z" fill="#070B0E"/>
<path d="M31.2247 0H36.2594L40.6143 9.48387L45.0979 0H49.8202V14H46.1268V4.83602L41.9741 14H39.0157L34.8629 4.83602V14H31.2247V0Z" fill="#070B0E"/>
<path d="M21.1431 2.82258L18.736 8.52419H23.6237L21.1431 2.82258ZM24.8916 11.4032H17.5048L16.4023 14H12.5987L18.6625 0H23.734L30.0734 14H26.0125L24.8916 11.4032Z" fill="#070B0E"/>
<path d="M3.78526 0V10.707H12.1459V14H0V0H3.78526Z" fill="#070B0E"/>
</svg>
