<svg width="160" height="160" viewBox="0 0 160 160" fill="none" xmlns="http://www.w3.org/2000/svg">
<rect width="160" height="160" fill="#FFC869"/>
<path d="M24.8224 46.5485C25.1672 46.3492 25.5238 46.1861 25.9325 46.0463C26.3412 45.9053 26.8037 45.8172 27.2478 45.7324C28.3141 45.5297 29.4174 45.4317 30.5123 45.3139C31.2726 45.2324 32.0395 45.1773 32.8014 45.1134C34.2596 44.9901 35.7128 44.8557 37.1626 44.7026C37.4182 44.6718 37.6688 44.6376 37.9295 44.6233C38.281 44.6057 38.7082 44.6079 39.0446 44.6839C39.413 44.7665 39.7426 44.859 40.0487 45.0198C40.3565 45.1817 40.6105 45.3811 40.8443 45.5881C41.3337 46.0209 41.6398 46.5529 41.9005 47.0573C42.1679 47.5739 42.3714 48.1058 42.6052 48.6279C43.209 49.9021 43.7439 51.1951 44.3056 52.4793C44.531 52.9562 44.758 53.4309 44.9817 53.9067C45.2138 54.3946 45.419 54.8924 45.6781 55.3748C46.2062 56.3506 46.7259 57.3286 47.2607 58.3011C47.5786 58.8815 47.8965 59.462 48.2144 60.0413C48.4717 60.5105 48.7593 60.9752 48.988 61.451C49.501 62.5105 50.009 63.5711 50.5152 64.6329C50.7271 65.0745 50.8903 65.525 51.0736 65.971C51.2838 66.4842 51.4924 66.9975 51.7026 67.5096C51.8944 67.9821 52.0407 68.4645 52.2089 68.9414C52.2408 69.0284 52.2694 69.1132 52.3014 69.2002C52.3115 68.85 52.3199 68.4997 52.3216 68.1484C52.33 67.0944 52.367 66.0371 52.3333 64.9809C52.2963 63.8223 52.2762 62.6647 52.2207 61.5061C52.0188 57.1623 51.8422 52.8219 51.8237 48.477C51.8019 44.2433 51.9734 40.0119 52.1702 35.7805C52.2493 34.0965 52.3182 32.4125 52.3653 30.7285C52.3888 29.8992 52.3788 29.0666 52.4259 28.2384C52.4376 28.0577 52.4561 27.8837 52.5133 27.7086C52.584 27.4927 52.7168 27.3055 52.8749 27.1117C53.1861 26.7273 53.8386 26.5037 54.4391 26.3749C55.1892 26.213 56.0117 26.2074 56.7904 26.1612C57.7121 26.1072 58.6237 26.0544 59.5386 25.9563C62.6249 25.5984 65.6221 24.9838 68.6226 24.4023C69.0531 24.3142 69.4837 24.2239 69.921 24.1468C70.1699 24.1038 70.4138 24.0631 70.6644 24.0323C70.8797 24.0058 71.0882 24.0047 71.3069 24.0003C71.7072 23.9937 72.1193 24.0917 72.4792 24.1909C72.9249 24.312 73.2613 24.5433 73.5489 24.7867C73.8045 25.0015 73.966 25.2735 74.1207 25.5235C74.3007 25.8154 74.3814 26.1348 74.4706 26.442C74.6354 27.0037 74.7329 27.5797 74.7817 28.1502C74.8709 29.2373 74.96 30.3199 74.9953 31.407C75.0289 32.4654 75.0609 33.5227 75.0559 34.5811C75.0542 35.6274 75.0542 36.6759 75.0323 37.7222C74.9415 42.2334 74.8944 46.7412 74.8994 51.2502C74.9028 53.3659 74.9718 55.4816 75.0357 57.5963C75.0996 59.6966 75.2005 61.7935 75.3233 63.8916C75.3485 64.33 75.3721 64.7661 75.4006 65.2045C75.5402 67.1891 75.6799 69.1738 75.848 71.1573C76.0146 73.1222 76.1895 75.0859 76.2988 77.0232C76.3022 77.0882 76.3106 77.1498 76.319 77.2137C76.3661 77.1597 76.4132 77.1036 76.4586 77.0485C76.6587 76.7776 76.8303 76.5022 76.99 76.2203C77.4862 75.2863 77.8512 74.3193 78.1926 73.3545C78.4399 72.6596 78.6871 71.9657 78.9343 71.2719C79.264 70.3467 79.5987 69.4205 79.9435 68.4975C80.3219 67.4832 80.6717 66.4633 81.0855 65.4545C81.6136 64.1659 82.1434 62.8762 82.6749 61.5876C84.3837 57.4233 86.1043 53.258 87.8955 49.1092C88.7735 47.0738 89.6666 45.0418 90.5327 43.0043C91.3619 41.0472 92.0935 39.0725 92.8302 37.0988C92.9009 36.9061 92.9732 36.7133 93.0421 36.5184C93.1616 36.1935 93.3617 35.8983 93.6695 35.6318C94.3658 35.0271 95.5852 34.993 96.6313 35.0558C97.6825 35.1175 98.7337 35.1979 99.7849 35.2661C101.389 35.3399 102.992 35.3983 104.598 35.4457C105.36 35.4677 106.122 35.4897 106.883 35.5195C107.3 35.5349 107.717 35.5503 108.134 35.5679C108.494 35.5822 108.849 35.591 109.204 35.6362C109.656 35.6946 110.039 35.8124 110.393 36.0063C111.054 36.373 111.323 36.9083 111.447 37.449C111.518 37.7596 111.496 38.0889 111.493 38.4028C111.484 38.8224 111.392 39.2443 111.301 39.6606C111.03 40.8831 110.635 42.0957 110.206 43.2995C109.772 44.5154 109.34 45.7324 108.906 46.9483C107.914 49.7491 106.94 52.5509 106.021 55.2548C105.998 55.3263 105.974 55.3968 105.951 55.4684C105.542 56.702 105.133 57.9344 104.723 59.1679C104.72 59.1811 104.715 59.1954 104.71 59.2098C104.691 59.267 104.674 59.3243 104.654 59.3805C104.646 59.4234 104.632 59.4642 104.615 59.5071C103.303 63.5789 102.101 67.6616 100.966 71.7554C105.993 65.4181 109.817 58.6767 115.455 52.5344C117.317 50.8108 117.837 48.1576 120.856 47.1509C124.805 46.7192 128.258 48.9098 132.002 49.5046C134.287 49.8328 136.376 50.7832 135.942 52.4981C133.574 60.9951 129.336 69.2421 125.92 77.5794C122.391 88.8166 116.733 99.7575 105.885 108.931C99.7075 115.584 90.2317 120.899 78.1085 121.886C78.1018 121.886 78.0968 121.886 78.09 121.887C77.7385 126.592 77.3264 131.295 76.943 136C76.1054 135.993 75.2661 135.986 74.4285 135.979C72.5852 135.965 70.7435 135.948 68.9001 135.923C67.3056 135.902 65.7112 135.88 64.1168 135.859C63.1951 135.848 62.2734 135.843 61.3517 135.823C60.0852 135.797 58.8171 135.781 57.5506 135.768C58.6388 130.548 60.0096 125.342 61.6814 120.19C60.3678 119.651 59.1249 119.04 57.9526 118.372C56.2522 117.401 54.688 116.333 53.2096 115.22C51.706 114.088 50.2966 112.911 48.9544 111.696C47.6291 110.496 46.3508 109.271 45.1953 107.997C44.0163 106.693 43.0072 105.325 42.0502 103.946C41.5675 103.253 41.0932 102.56 40.6609 101.852C40.2371 101.16 39.8166 100.467 39.3928 99.7729C39.0968 99.285 38.7974 98.796 38.5014 98.3081C38.2205 97.8477 37.98 97.3763 37.7193 96.9116C37.4788 96.4776 37.2248 96.0459 37.0028 95.6087C36.7303 95.0701 36.4276 94.5337 36.1871 93.9885C35.738 92.9676 35.2873 91.9477 34.9223 90.9136C34.559 89.8761 34.1923 88.8386 33.8694 87.7945C33.2034 85.6347 32.576 83.4716 31.9537 81.3053C31.6543 80.2634 31.3566 79.2237 31.0556 78.1818C30.768 77.1873 30.472 76.1894 30.2382 75.1883C29.996 74.1442 29.7319 73.1001 29.52 72.0516C29.3047 70.9833 29.0844 69.9139 28.8708 68.8456C28.4116 66.5591 27.9306 64.2749 27.4479 61.9918C27.13 60.4818 26.8172 58.9708 26.5027 57.4586C26.1982 55.9971 25.8518 54.5389 25.4952 53.0796C25.2345 52.1082 24.9688 51.1368 24.6728 50.1676C24.5971 49.9275 24.5248 49.6874 24.4474 49.4473C24.4053 49.3195 24.365 49.1907 24.3229 49.0629C24.2186 48.7391 24.0673 48.4142 24.0151 48.0849C24.005 48.0188 24 47.9516 24 47.8844C24.0034 47.3976 24.2708 46.8723 24.8224 46.5485Z" fill="#765559"/>
</svg>
