<svg width="1032" height="88" viewBox="0 0 1032 88" fill="none" xmlns="http://www.w3.org/2000/svg">
<path d="M151.058 64H104.971L137.555 31.4154C132.83 24.9031 127.097 19.1699 120.585 14.4448L88 47.0294V0.942014C84.0912 0.322008 80.0832 0 76 0C71.9168 0 67.9088 0.322008 64 0.942014V47.0294L31.4154 14.4448C24.9031 19.1699 19.1699 24.9031 14.4448 31.4154L47.0294 64H0.942014C0.322008 67.9088 0 71.9168 0 76C0 80.0832 0.322008 84.0912 0.942014 88H151.058C151.678 84.0912 152 80.0832 152 76C152 71.9168 151.678 67.9088 151.058 64Z" fill="#6D7170"/>
<path d="M216 0H240.261V66.2309H295.116V88H216V0Z" fill="#070B0E"/>
<path d="M349.876 0H382.383L426.004 88H399.473L391.585 72.2999H340.195L332.547 88H305.059L349.876 0ZM383.1 53.961L365.89 18.8666L348.92 53.961H383.1Z" fill="#070B0E"/>
<path d="M437.165 0H475.648L504.689 58.4468L533.611 0H571.854V88H548.191L549.386 20.054L514.011 88H494.65L459.873 20.054L460.59 88H437.165V0Z" fill="#070B0E"/>
<path d="M592.623 0H664.569C669.23 0 672.935 0.263873 675.683 0.79161C678.432 1.31935 680.822 2.11095 682.974 3.16642C686.081 5.0135 688.471 7.38831 689.905 10.5547C691.339 13.7211 692.056 17.943 692.056 23.0885C692.056 31.0045 690.264 36.4138 686.917 39.3163C685.722 40.3718 684.288 41.2954 682.854 41.8231C681.42 42.3508 679.269 42.8786 676.4 43.4063C679.986 43.8021 682.735 44.3298 684.647 44.8576C686.559 45.3853 688.232 46.1769 689.666 47.2324C693.371 50.2669 695.283 55.8081 695.283 63.8561C695.283 74.2789 692.176 81.2714 686.081 84.9655C684.169 86.021 681.898 86.8126 679.03 87.3403C676.161 87.8681 672.457 88 667.915 88H592.623V0ZM657.04 35.0945C659.31 35.0945 660.984 35.0945 662.059 34.9625C663.135 34.8306 664.091 34.5667 664.927 34.039C666.959 32.7196 668.035 30.6087 668.035 27.4423C668.035 23.7481 666.601 21.3733 663.852 20.1859C663.015 19.922 662.179 19.7901 661.223 19.6582C660.266 19.6582 658.713 19.5262 656.442 19.5262H616.286V35.0945H657.04ZM659.669 68.4738C662.059 68.4738 663.732 68.4738 664.569 68.3418C665.405 68.3418 666.242 68.078 667.079 67.8141C669.588 66.8906 670.903 64.5157 670.903 60.5577C670.903 56.5997 669.469 54.093 666.84 53.0375C666.362 53.0375 666.003 52.9056 665.764 52.7736C665.405 52.7736 664.927 52.6417 664.449 52.5097C663.852 52.5097 663.135 52.3778 662.298 52.3778H616.286V68.4738H659.669Z" fill="#070B0E"/>
<path d="M802.67 0V19.922H738.254V35.0945H798.966V52.5097H738.254V68.078H803.507V88H714.352V0H802.67Z" fill="#070B0E"/>
<path d="M821.492 0H890.21C893.079 0 895.588 0.13194 897.74 0.13194C899.891 0.263873 901.803 0.395805 903.476 0.65967C905.149 0.923542 906.583 1.31935 907.898 1.71514C909.213 2.11095 910.527 2.63869 911.722 3.16642C915.188 5.0135 917.698 7.91604 919.371 12.006C921.044 16.2279 921.881 21.6372 921.881 28.4978C921.881 37.8651 920.208 44.4618 916.861 48.4198C916.144 49.2114 915.308 50.003 914.471 50.5307C913.635 51.0585 912.559 51.5862 911.244 52.1139C909.93 52.6417 908.376 53.0375 906.464 53.4333C904.552 53.8291 902.281 54.2249 899.652 54.6207C900.488 54.7526 901.325 54.8846 902.042 54.8846C902.759 54.8846 903.237 54.8846 903.596 54.8846C907.659 55.1484 910.766 55.6762 912.678 56.3358C914.591 56.9955 916.264 58.051 917.459 59.6342C918.654 61.2174 919.491 63.0645 919.969 65.1754C920.447 67.4183 920.805 70.4528 920.805 74.1469V88H896.186V77.0495C896.186 74.5427 895.947 72.5637 895.469 71.1124C894.991 69.6612 894.274 68.4738 893.198 67.5502C892.242 66.8906 891.047 66.4948 889.732 66.2309C888.298 65.967 886.028 65.8351 882.801 65.8351H845.633V88H821.492V0ZM883.518 44.3298C886.386 44.3298 888.776 44.1979 890.569 43.934C892.362 43.6702 893.796 43.2744 894.871 42.4828C895.827 41.6912 896.545 40.6357 896.903 39.3163C897.262 37.997 897.501 36.2819 897.501 34.039C897.501 31.2684 897.262 29.1574 897.023 27.7062C896.783 26.3868 896.186 25.1994 895.469 24.1439C894.991 23.6162 894.393 23.2204 893.915 22.9565C893.437 22.6927 892.72 22.4288 891.884 22.1649C891.047 21.901 890.091 21.7691 888.896 21.7691C887.701 21.7691 886.147 21.6372 884.354 21.6372H845.633V44.3298H883.518Z" fill="#070B0E"/>
<path d="M972.244 21.7691H936.75V0H1032V21.7691H996.505V88H972.244V21.7691Z" fill="#070B0E"/>
</svg>
