<svg width="160" height="160" viewBox="0 0 160 160" fill="none" xmlns="http://www.w3.org/2000/svg">
<rect width="160" height="160" fill="#D47B62"/>
<path d="M117.255 29.0801C104.977 25.1385 94.6239 24.7978 82.6268 24.4029C80.418 24.3302 78.1535 24.2556 75.811 24.1565C64.0009 23.6575 53.2768 24.2032 43.4507 27.99C38.488 29.9024 32.143 32.6762 28.2022 36.6436C24.9847 39.8835 22.9883 45.157 24.5318 49.6866C25.7102 53.145 28.7092 55.4994 31.8772 56.5466C34.0714 57.2716 36.3487 57.4777 38.6254 57.6838C40.4141 57.8457 42.2024 58.0076 43.9498 58.4211C47.5284 59.2669 51.2603 59.6794 54.9329 60.0853C55.7682 60.1776 56.6006 60.2696 57.4272 60.3663C60.0683 60.6749 62.7134 60.9412 65.3613 61.1653C58.5739 61.3636 51.8919 62.0846 45.0889 64.4558C39.234 66.497 32.2886 71.144 30.0805 77.9901C28.1619 83.9407 32.2525 91.0407 36.8479 93.985C40.963 96.622 47.4077 97.1268 52.8763 97.555C54.396 97.6741 55.841 97.7872 57.139 97.9386C61.7972 98.4821 66.4739 98.8269 71.1593 98.996C66.5005 99.3974 61.8448 99.9406 57.1097 100.58C55.1709 100.842 53.1188 100.989 51.0237 101.139C43.1785 101.702 34.7299 102.308 29.3684 109.13C24.6694 115.108 24.9995 123.937 31.4999 127.522C40.6828 132.587 51.6502 134.007 61.6307 135.189C74.3402 136.696 87.2305 135.803 99.9528 134.922C100.779 134.865 101.604 134.807 102.429 134.751C103.144 134.702 103.859 134.657 104.574 134.612C113.024 134.079 121.387 133.552 128.138 126.707C131.357 123.445 133.36 116.427 132.054 111.534C130.628 106.187 124 103.733 119.912 102.301C113.797 100.161 107.739 98.5217 101.782 97.8411C109.267 97.0622 116.72 95.9613 124.102 94.633C129.177 93.7198 135.573 91.0015 135.979 84.1756C136.528 74.965 126.171 69.8177 119.854 66.7105C114.104 63.8812 107.676 62.4732 101.127 61.7781C109.512 61.5384 117.906 60.7865 125.475 56.1449C140.43 46.9822 128.363 32.6471 117.255 29.0801Z" fill="white"/>
</svg>
